<svg id="svg" version="1.1" xmlns="http://www.w3.org/2000/svg" xmlns:xlink="http://www.w3.org/1999/xlink" width="400" height="400" viewBox="0, 0, 400,400"><g id="svgg"><path id="path0" d="M79.800 36.770 C 78.957 36.935,78.562 37.269,78.474 37.892 C 78.362 38.676,78.155 38.761,76.689 38.619 C 74.752 38.433,72.400 39.288,72.400 40.180 C 72.400 40.521,72.130 40.823,71.800 40.850 C 71.470 40.877,70.975 40.923,70.700 40.950 C 70.425 40.977,70.142 41.405,70.072 41.900 C 69.980 42.551,69.676 42.800,68.972 42.800 C 68.086 42.800,67.768 43.331,67.953 44.500 C 67.979 44.665,67.481 44.800,66.847 44.800 C 65.796 44.800,65.014 45.749,65.144 46.863 C 65.161 47.007,64.866 47.078,64.488 47.021 C 64.025 46.950,63.734 47.257,63.597 47.958 C 63.462 48.654,63.097 49.042,62.497 49.128 C 61.771 49.231,61.600 49.512,61.600 50.599 C 61.600 51.572,61.311 52.169,60.550 52.768 C 59.609 53.508,59.500 53.864,59.500 56.190 C 59.500 57.617,59.352 58.694,59.170 58.582 C 57.542 57.575,56.653 68.085,58.212 69.905 C 58.614 70.375,59.105 70.659,59.303 70.536 C 59.501 70.414,59.618 71.008,59.562 71.857 C 59.337 75.266,59.521 76.000,60.600 76.000 C 61.541 76.000,61.984 77.567,61.647 79.700 C 61.621 79.865,62.050 80.000,62.600 80.000 C 63.513 80.000,63.831 80.513,63.650 81.693 C 63.625 81.854,64.054 82.099,64.602 82.236 C 65.151 82.374,65.623 82.647,65.650 82.843 C 65.677 83.040,65.723 83.425,65.750 83.700 C 65.778 83.975,66.295 84.257,66.900 84.327 C 67.515 84.397,68.000 84.700,68.000 85.012 C 68.000 85.756,69.267 86.400,70.730 86.400 C 71.662 86.400,71.967 86.615,72.167 87.410 L 72.420 88.419 82.408 88.386 L 92.397 88.353 92.642 87.376 C 92.861 86.501,93.099 86.399,94.943 86.394 C 96.419 86.389,96.830 86.278,96.400 86.000 C 96.050 85.774,95.996 85.610,96.271 85.606 C 96.530 85.603,96.801 85.288,96.875 84.908 C 96.948 84.527,97.366 84.198,97.804 84.176 C 100.177 84.059,100.392 83.970,100.635 83.003 C 100.773 82.454,101.042 82.103,101.234 82.221 C 101.766 82.550,103.200 81.649,103.200 80.986 C 103.200 80.664,103.380 80.377,103.600 80.350 C 103.820 80.323,104.225 80.269,104.500 80.232 C 104.775 80.194,104.957 79.953,104.905 79.696 C 104.852 79.439,105.064 79.326,105.375 79.446 C 105.700 79.570,106.212 79.248,106.579 78.688 C 107.052 77.967,107.474 77.763,108.209 77.904 C 109.056 78.066,109.200 77.944,109.200 77.064 C 109.200 76.064,109.282 76.032,112.100 75.918 C 114.666 75.814,115.046 75.696,115.395 74.900 C 116.023 73.468,129.733 73.441,130.734 74.869 C 131.079 75.362,131.583 75.593,132.047 75.472 C 132.462 75.363,132.700 75.438,132.577 75.637 C 132.454 75.837,133.251 76.000,134.349 76.000 C 136.114 76.000,136.359 76.104,136.472 76.900 C 136.559 77.511,136.921 77.845,137.600 77.938 C 138.150 78.015,138.744 78.330,138.920 78.638 C 139.368 79.425,141.563 80.500,142.212 80.251 C 142.567 80.114,142.793 80.411,142.876 81.122 C 142.964 81.887,143.261 82.237,143.900 82.328 C 144.395 82.398,144.822 82.623,144.850 82.828 C 144.878 83.033,144.922 83.425,144.950 83.700 C 144.978 83.975,145.495 84.257,146.100 84.327 C 146.852 84.413,147.200 84.684,147.200 85.184 C 147.200 86.048,147.962 86.400,149.833 86.400 C 151.024 86.400,151.200 86.528,151.200 87.400 C 151.200 88.364,151.293 88.400,153.800 88.400 C 155.230 88.400,156.400 88.575,156.400 88.790 C 156.400 90.632,166.208 91.072,168.079 89.314 C 168.771 88.664,169.605 88.415,171.401 88.323 C 172.953 88.243,173.818 88.023,173.850 87.700 C 173.878 87.425,173.923 87.020,173.950 86.800 C 173.978 86.580,174.900 86.400,176.000 86.400 C 177.839 86.400,178.000 86.323,178.000 85.450 C 178.000 84.720,178.271 84.446,179.167 84.267 C 179.998 84.100,180.303 83.827,180.225 83.317 C 180.149 82.821,180.438 82.537,181.158 82.397 C 181.843 82.264,182.243 81.896,182.325 81.322 C 182.402 80.779,182.780 80.402,183.325 80.325 C 183.917 80.240,184.239 79.876,184.320 79.200 C 184.532 77.426,184.773 77.013,185.293 77.533 C 186.088 78.328,186.400 78.057,186.400 76.571 C 186.400 75.174,187.117 74.000,187.971 74.000 C 188.228 74.000,188.400 73.052,188.400 71.643 C 188.400 69.886,188.557 69.225,189.018 69.048 C 191.125 68.240,191.506 56.710,189.484 54.970 C 188.620 54.228,188.421 53.676,188.321 51.737 C 188.214 49.662,188.099 49.386,187.300 49.272 C 186.603 49.173,186.400 48.883,186.400 47.985 C 186.400 47.160,186.240 46.887,185.845 47.038 C 185.497 47.172,185.087 46.793,184.747 46.026 C 184.373 45.181,183.924 44.800,183.302 44.800 C 182.619 44.800,182.400 44.569,182.400 43.850 C 182.400 43.096,182.188 42.900,181.370 42.900 C 180.803 42.900,180.128 42.671,179.870 42.391 C 179.503 41.994,179.524 41.953,179.968 42.207 C 180.396 42.451,180.470 42.359,180.268 41.833 C 180.121 41.449,180.000 41.059,180.000 40.967 C 180.000 40.875,179.479 40.800,178.843 40.800 C 178.168 40.800,177.587 40.542,177.448 40.182 C 177.057 39.161,174.774 38.543,171.706 38.626 C 170.114 38.669,168.888 38.582,168.980 38.433 C 169.924 36.906,164.889 36.202,163.351 37.646 C 162.478 38.466,161.916 38.603,159.269 38.642 C 156.045 38.689,154.287 39.165,153.732 40.139 C 153.550 40.460,152.950 40.785,152.400 40.862 C 151.721 40.955,151.359 41.289,151.272 41.900 C 151.178 42.563,150.862 42.812,150.072 42.846 C 149.482 42.872,148.820 42.934,148.600 42.985 C 148.380 43.036,147.988 43.106,147.728 43.139 C 147.468 43.173,147.198 43.605,147.128 44.100 C 147.034 44.759,146.732 45.000,146.000 45.000 C 145.210 45.000,145.019 45.184,145.091 45.876 C 145.180 46.734,144.009 47.500,143.288 47.055 C 143.113 46.946,142.738 47.380,142.456 48.019 C 142.160 48.687,141.657 49.158,141.271 49.127 C 139.497 48.985,138.877 49.238,138.636 50.200 C 138.402 51.133,135.750 51.658,133.442 51.228 C 133.245 51.191,132.587 51.638,131.980 52.220 C 130.315 53.815,119.536 53.796,118.119 52.195 C 117.403 51.386,116.866 51.200,115.246 51.200 C 113.634 51.200,113.207 51.054,113.011 50.433 C 112.740 49.579,110.700 48.710,109.789 49.060 C 109.363 49.223,109.200 48.997,109.200 48.243 C 109.200 47.609,108.965 47.176,108.600 47.140 C 108.270 47.107,107.775 47.062,107.500 47.040 C 107.225 47.018,106.868 46.677,106.706 46.282 C 106.545 45.887,105.760 45.292,104.963 44.959 C 104.165 44.625,103.424 44.013,103.316 43.599 C 103.187 43.106,102.692 42.802,101.890 42.722 C 101.214 42.655,100.579 42.350,100.479 42.044 C 100.369 41.710,100.475 41.599,100.744 41.765 C 101.026 41.940,101.105 41.818,100.957 41.433 C 100.829 41.099,100.606 40.841,100.462 40.860 C 99.519 40.985,98.800 40.721,98.800 40.249 C 98.800 39.220,97.616 38.709,95.104 38.655 C 92.867 38.606,92.587 38.508,92.477 37.740 C 92.295 36.459,84.458 35.859,79.800 36.770 M193.067 36.667 C 192.920 36.813,192.800 37.364,192.800 37.890 C 192.800 38.417,192.636 38.746,192.436 38.622 C 191.323 37.935,190.776 38.919,190.847 41.483 C 190.910 43.777,191.025 44.120,191.859 44.500 C 192.658 44.864,192.800 45.220,192.800 46.864 C 192.800 48.662,192.871 48.800,193.800 48.800 L 194.800 48.800 194.856 53.300 C 194.887 55.775,194.929 59.555,194.951 61.700 C 194.978 64.452,195.131 65.600,195.471 65.600 C 195.736 65.600,196.051 65.760,196.172 65.955 C 196.293 66.150,196.078 66.285,195.696 66.255 C 195.085 66.207,194.986 66.683,194.885 70.141 C 194.784 73.600,194.678 74.107,194.022 74.278 C 193.178 74.499,192.813 75.516,192.805 77.671 C 192.801 78.760,192.540 79.346,191.800 79.929 C 191.250 80.361,190.800 81.094,190.800 81.558 C 190.800 82.309,190.203 82.622,189.100 82.447 C 188.935 82.421,188.800 82.940,188.800 83.600 C 188.800 84.260,188.665 84.779,188.500 84.753 C 187.452 84.587,186.839 84.915,186.728 85.700 C 186.646 86.278,186.278 86.646,185.700 86.728 C 184.915 86.839,184.587 87.452,184.753 88.500 C 184.779 88.665,184.260 88.800,183.600 88.800 C 182.940 88.800,182.421 88.935,182.447 89.100 C 182.613 90.148,182.285 90.761,181.500 90.872 C 180.930 90.953,180.554 91.321,180.475 91.876 C 180.388 92.489,180.028 92.789,179.275 92.876 C 178.428 92.974,178.220 93.191,178.295 93.900 C 178.354 94.456,178.163 94.819,177.795 94.850 C 177.468 94.877,177.020 94.945,176.800 95.000 C 176.580 95.055,176.288 95.123,176.151 95.150 C 176.014 95.177,176.149 95.505,176.451 95.877 C 176.824 96.337,176.840 96.457,176.500 96.253 C 176.185 96.064,176.000 96.184,176.000 96.576 C 176.000 97.147,175.520 97.385,174.670 97.237 C 174.489 97.206,174.455 97.365,174.594 97.590 C 174.733 97.816,174.657 98.000,174.424 98.000 C 174.191 98.000,174.000 98.199,174.000 98.443 C 174.000 98.691,174.308 98.778,174.700 98.642 C 175.329 98.423,175.335 98.449,174.760 98.899 C 174.060 99.447,174.000 99.601,174.000 100.833 C 174.000 101.319,173.793 101.598,173.504 101.501 C 172.581 101.194,172.139 102.193,172.045 104.794 C 171.958 107.191,171.723 107.734,170.600 108.127 C 169.293 108.583,170.066 117.200,171.414 117.200 C 171.855 117.200,172.000 117.725,172.000 119.320 C 172.000 120.486,172.225 121.682,172.500 121.979 C 172.900 122.410,172.900 122.461,172.500 122.235 C 172.171 122.049,172.000 122.232,172.000 122.769 C 172.000 123.306,172.342 123.671,173.000 123.836 C 173.988 124.084,174.046 124.239,174.174 127.000 C 174.200 127.550,174.534 127.838,175.246 127.921 C 176.107 128.021,176.250 128.206,176.094 129.021 C 175.910 129.981,176.008 130.055,177.600 130.162 C 177.930 130.185,178.205 130.472,178.211 130.802 C 178.227 131.755,178.786 132.400,179.596 132.400 C 180.068 132.400,180.392 132.733,180.472 133.300 C 180.581 134.068,180.879 134.218,182.500 134.322 C 183.545 134.389,184.423 134.614,184.450 134.822 C 184.478 135.030,184.523 135.425,184.550 135.700 C 184.696 137.160,206.800 136.416,206.800 134.951 C 206.800 134.605,207.247 134.400,208.000 134.400 C 208.698 134.400,209.200 134.189,209.200 133.896 C 209.200 133.248,210.285 132.577,211.914 132.219 C 212.825 132.019,213.273 131.650,213.447 130.956 C 213.620 130.265,213.893 130.039,214.369 130.190 C 214.811 130.330,215.348 129.996,215.916 129.228 C 216.511 128.424,217.199 128.012,218.093 127.926 C 219.096 127.829,219.430 127.591,219.528 126.900 C 219.619 126.256,219.925 126.000,220.602 126.000 C 222.061 126.000,223.600 125.287,223.600 124.610 C 223.600 124.167,224.029 124.000,225.167 124.000 C 226.046 124.000,226.822 123.781,226.935 123.500 C 227.090 123.116,227.144 123.114,227.168 123.490 C 227.213 124.183,229.572 123.657,230.565 122.732 C 231.583 121.783,240.936 121.620,241.480 122.542 C 242.071 123.542,243.530 124.000,246.130 124.000 C 248.552 124.000,248.729 124.062,248.964 125.000 C 249.148 125.731,249.483 126.000,250.208 126.000 C 250.753 126.000,251.200 126.167,251.200 126.371 C 251.200 127.053,252.446 128.000,253.342 128.000 C 253.903 128.000,254.489 128.443,254.943 129.211 C 255.336 129.877,255.870 130.396,256.129 130.363 C 257.299 130.219,257.643 130.450,257.525 131.300 C 257.445 131.873,257.618 132.220,258.000 132.254 C 258.330 132.283,258.825 132.328,259.100 132.354 C 259.375 132.379,259.600 132.741,259.600 133.157 C 259.600 134.047,260.348 134.400,262.233 134.400 C 262.985 134.400,263.623 134.580,263.650 134.800 C 263.678 135.020,263.723 135.425,263.750 135.700 C 263.784 136.041,264.783 136.237,266.900 136.317 C 269.904 136.430,270.000 136.465,270.000 137.428 L 270.000 138.421 275.900 138.311 C 281.676 138.202,281.803 138.181,281.928 137.300 C 282.091 136.153,284.276 135.995,284.683 137.100 C 285.070 138.148,285.616 138.387,287.638 138.394 C 289.882 138.401,290.800 139.255,290.800 141.331 C 290.800 142.613,290.678 142.800,289.843 142.800 C 289.157 142.800,288.816 143.082,288.636 143.800 C 288.410 144.701,287.619 145.056,286.300 144.847 C 286.135 144.821,286.000 144.974,286.000 145.187 C 286.000 145.401,285.699 145.459,285.331 145.318 C 284.823 145.123,284.723 145.223,284.918 145.731 C 285.059 146.099,284.990 146.400,284.764 146.400 C 284.538 146.400,284.450 146.558,284.570 146.751 C 284.689 146.944,283.934 147.096,282.893 147.090 C 280.727 147.076,278.975 147.462,277.754 148.222 C 276.904 148.750,267.917 149.252,268.228 148.753 C 268.684 148.020,266.684 147.128,264.334 147.016 C 261.024 146.859,261.200 146.915,261.200 146.024 C 261.200 145.597,261.020 145.136,260.800 145.000 C 260.580 144.864,260.400 144.913,260.400 145.110 C 260.400 145.306,260.138 145.467,259.818 145.467 C 259.497 145.467,259.328 145.317,259.441 145.133 C 259.555 144.950,259.097 144.800,258.424 144.800 C 257.385 144.800,257.200 144.649,257.200 143.800 C 257.200 143.008,256.998 142.800,256.228 142.800 C 255.524 142.800,255.220 142.551,255.128 141.900 C 255.045 141.314,254.678 140.954,254.078 140.869 C 253.545 140.794,253.002 140.331,252.788 139.769 C 252.572 139.200,252.097 138.800,251.638 138.800 C 251.131 138.800,250.811 138.483,250.728 137.900 C 250.625 137.175,250.230 136.928,248.700 136.633 C 247.309 136.364,246.800 136.081,246.800 135.576 C 246.800 134.730,246.012 134.400,243.995 134.400 C 242.703 134.400,242.435 134.255,242.328 133.500 C 242.201 132.605,242.156 132.600,234.339 132.511 L 226.477 132.422 225.829 133.411 C 225.349 134.144,224.827 134.400,223.814 134.400 C 223.062 134.400,222.341 134.572,222.211 134.783 C 222.081 134.993,221.729 135.071,221.429 134.956 C 221.129 134.840,220.635 135.101,220.332 135.534 C 220.028 135.966,219.335 136.384,218.790 136.460 C 218.038 136.566,217.800 136.840,217.800 137.600 C 217.800 138.377,217.593 138.602,216.869 138.610 C 216.290 138.616,215.687 139.033,215.276 139.710 C 214.912 140.310,214.386 140.800,214.107 140.800 C 213.828 140.800,213.600 141.250,213.600 141.800 C 213.600 142.600,213.400 142.800,212.600 142.800 C 211.800 142.800,211.600 143.000,211.600 143.800 C 211.600 144.350,211.409 144.800,211.176 144.800 C 210.943 144.800,210.888 145.025,211.053 145.300 C 211.257 145.640,211.137 145.624,210.677 145.251 C 210.305 144.949,209.977 144.769,209.949 144.851 C 209.790 145.313,209.550 147.133,209.537 147.961 C 209.528 148.579,209.413 148.745,209.215 148.424 C 208.471 147.221,207.301 150.078,207.414 152.822 C 207.511 155.173,207.434 155.483,206.665 155.822 C 204.984 156.563,204.903 162.134,206.548 163.932 C 207.243 164.693,207.408 165.401,207.443 167.778 C 207.490 171.049,207.757 171.757,208.833 171.475 C 209.346 171.341,209.560 171.485,209.525 171.941 C 209.414 173.364,209.638 173.885,210.579 174.389 C 211.292 174.770,211.591 175.306,211.679 176.356 C 211.775 177.504,211.985 177.826,212.700 177.928 C 213.195 177.998,213.600 178.291,213.600 178.579 C 213.600 179.411,214.510 179.948,216.217 180.124 C 217.217 180.227,217.804 180.492,217.811 180.844 C 217.832 181.977,218.488 182.400,220.224 182.400 C 221.700 182.400,222.000 182.528,222.000 183.157 C 222.000 184.286,222.558 184.368,230.291 184.371 C 238.530 184.375,240.025 184.192,240.298 183.146 C 240.493 182.403,240.827 182.253,242.036 182.368 C 243.258 182.484,244.800 181.635,244.800 180.847 C 244.800 180.286,245.007 180.129,245.559 180.273 C 246.450 180.506,248.400 179.344,248.400 178.581 C 248.400 178.290,248.895 177.996,249.500 177.927 C 250.277 177.837,250.637 177.543,250.725 176.924 C 250.812 176.311,251.172 176.011,251.925 175.924 C 252.687 175.836,253.037 175.538,253.128 174.900 C 253.222 174.237,253.538 173.988,254.328 173.954 C 254.918 173.928,255.580 173.866,255.800 173.815 C 256.020 173.764,256.425 173.694,256.700 173.661 C 256.975 173.627,257.200 173.240,257.200 172.800 C 257.200 172.021,258.040 171.777,260.050 171.971 C 260.408 172.005,261.161 171.486,261.725 170.817 L 262.748 169.600 271.546 169.600 L 280.344 169.600 280.472 170.499 C 280.574 171.217,280.986 171.479,282.532 171.806 C 283.612 172.034,284.635 172.519,284.851 172.905 C 285.064 173.286,285.935 173.708,286.787 173.844 C 287.967 174.033,288.392 174.313,288.569 175.020 C 288.730 175.660,289.142 175.986,289.901 176.074 C 290.783 176.175,290.975 176.378,290.875 177.100 C 290.773 177.832,290.941 178.000,291.775 178.000 C 292.600 178.000,292.800 178.194,292.800 178.992 C 292.800 179.717,293.069 180.052,293.800 180.236 C 294.377 180.381,294.800 180.775,294.800 181.168 C 294.800 181.543,295.355 182.260,296.034 182.762 C 296.954 183.442,297.213 183.895,297.051 184.540 C 296.779 185.621,297.164 186.263,298.200 186.459 C 298.846 186.581,299.007 186.944,299.037 188.340 C 299.066 189.686,299.304 190.261,300.113 190.935 C 301.113 191.768,301.159 191.999,301.368 197.200 C 301.488 200.170,301.634 203.438,301.693 204.462 C 301.752 205.486,301.665 206.240,301.500 206.138 C 300.986 205.821,301.172 209.010,301.700 209.579 C 302.100 210.010,302.100 210.061,301.700 209.835 C 301.318 209.619,301.200 210.311,301.200 212.762 C 301.200 215.518,301.091 216.030,300.432 216.383 C 299.577 216.841,298.595 219.345,299.009 220.015 C 299.369 220.597,298.867 222.488,298.424 222.215 C 297.620 221.718,296.835 222.475,297.048 223.542 C 297.217 224.383,296.999 224.847,296.031 225.709 C 295.354 226.313,294.800 227.152,294.800 227.575 C 294.800 228.041,294.478 228.395,293.984 228.472 C 293.126 228.607,293.041 229.440,293.896 229.345 C 294.168 229.315,294.287 229.460,294.159 229.666 C 294.031 229.873,293.722 229.974,293.471 229.890 C 293.221 229.807,292.472 230.312,291.808 231.014 C 291.144 231.715,290.195 232.416,289.700 232.571 C 289.175 232.736,288.800 233.176,288.800 233.627 C 288.800 234.052,288.609 234.400,288.376 234.400 C 288.143 234.400,288.088 234.625,288.253 234.900 C 288.441 235.212,288.288 235.185,287.846 234.826 C 287.102 234.221,286.421 234.716,286.406 235.872 C 286.403 236.132,285.996 236.402,285.503 236.472 C 284.912 236.556,284.536 236.948,284.403 237.616 C 284.261 238.325,283.928 238.644,283.300 238.671 C 282.805 238.693,281.950 238.731,281.400 238.756 C 280.612 238.791,280.400 239.012,280.400 239.800 C 280.400 240.636,280.211 240.800,279.242 240.800 C 278.529 240.800,277.722 241.181,277.142 241.793 C 276.590 242.375,275.745 242.789,275.100 242.793 C 274.195 242.799,274.000 242.977,274.000 243.800 C 274.000 244.800,271.601 245.164,267.300 244.816 C 266.805 244.776,266.400 244.897,266.400 245.086 C 266.400 245.274,266.085 245.454,265.700 245.486 C 265.315 245.517,263.900 245.668,262.555 245.822 C 260.729 246.030,259.597 245.931,258.081 245.427 C 256.965 245.056,255.815 244.785,255.526 244.824 C 253.503 245.097,250.800 244.748,250.800 244.214 C 250.800 243.439,249.547 242.800,248.026 242.800 C 247.104 242.800,246.800 242.618,246.800 242.067 C 246.800 241.018,246.369 240.730,245.660 241.303 C 245.171 241.700,245.107 241.699,245.347 241.300 C 245.553 240.957,245.353 240.800,244.710 240.800 C 244.099 240.800,243.533 240.395,243.086 239.638 C 242.587 238.792,242.181 238.532,241.600 238.684 C 241.054 238.827,240.784 238.688,240.750 238.247 C 240.722 237.891,240.678 237.375,240.650 237.100 C 240.623 236.825,240.105 236.543,239.500 236.473 C 238.636 236.374,238.400 236.138,238.400 235.373 C 238.400 234.614,238.190 234.400,237.443 234.400 C 236.757 234.400,236.416 234.118,236.236 233.400 C 236.015 232.521,235.769 232.400,234.211 232.400 C 232.848 232.400,232.203 232.166,231.428 231.392 L 230.420 230.384 222.110 230.492 L 213.800 230.600 213.895 231.500 C 213.983 232.330,213.829 232.400,211.910 232.400 C 210.172 232.400,209.696 232.565,209.015 233.404 C 208.477 234.067,207.724 234.444,206.800 234.515 C 205.722 234.598,205.400 234.800,205.399 235.394 C 205.398 235.885,205.036 236.251,204.399 236.402 C 203.673 236.574,203.398 236.908,203.392 237.619 C 203.388 238.196,203.141 238.615,202.792 238.638 C 201.492 238.726,201.202 238.812,201.247 239.100 C 201.434 240.282,201.115 240.800,200.200 240.800 C 199.236 240.800,198.944 241.527,199.151 243.415 C 199.176 243.643,198.694 244.126,198.081 244.488 C 197.204 245.007,196.973 245.429,196.998 246.471 C 197.022 247.449,196.742 248.037,195.925 248.724 L 194.820 249.654 194.910 258.060 C 195.001 266.593,195.350 268.296,196.818 267.389 C 196.983 267.287,197.111 267.787,197.102 268.502 C 197.065 271.328,197.158 271.600,198.156 271.600 C 198.681 271.600,199.103 271.825,199.093 272.100 C 199.035 273.637,199.247 274.000,200.200 274.000 C 201.000 274.000,201.200 274.200,201.200 275.000 C 201.200 275.800,201.400 276.000,202.200 276.000 C 203.012 276.000,203.200 276.197,203.200 277.047 C 203.200 277.936,203.344 278.066,204.163 277.909 C 204.962 277.756,205.164 277.918,205.353 278.863 C 205.520 279.698,205.822 280.009,206.490 280.033 C 209.472 280.143,210.632 280.458,211.502 281.397 C 212.542 282.519,216.394 282.914,216.406 281.900 C 216.411 281.508,216.480 281.506,216.724 281.890 C 217.518 283.141,227.095 282.340,227.800 280.963 C 228.104 280.369,228.575 280.197,229.758 280.245 C 230.988 280.296,231.547 280.072,232.417 279.183 C 233.092 278.492,234.036 278.007,234.859 277.928 C 235.897 277.829,236.229 277.597,236.328 276.900 C 236.420 276.249,236.724 276.000,237.428 276.000 C 238.198 276.000,238.400 275.792,238.400 275.000 C 238.400 274.207,238.602 274.000,239.374 274.000 C 240.858 274.000,242.400 273.292,242.400 272.610 C 242.400 272.274,242.625 271.979,242.900 271.954 C 243.175 271.928,243.608 271.883,243.862 271.854 C 244.117 271.824,244.708 271.314,245.176 270.720 C 245.895 269.807,246.382 269.621,248.314 269.520 C 250.337 269.414,250.615 269.297,250.728 268.500 L 250.856 267.600 259.799 267.600 L 268.742 267.600 269.529 268.600 C 270.164 269.408,270.669 269.600,272.158 269.600 C 273.560 269.600,274.000 269.749,274.000 270.224 C 274.000 270.616,274.185 270.736,274.500 270.547 C 274.840 270.343,274.824 270.464,274.451 270.923 C 273.961 271.527,274.037 271.627,275.151 271.850 C 275.838 271.988,276.400 272.352,276.400 272.660 C 276.400 272.968,276.834 273.385,277.364 273.586 C 279.206 274.286,278.543 278.342,276.582 278.376 C 274.659 278.409,274.398 278.516,274.863 279.076 C 275.217 279.503,275.174 279.565,274.657 279.366 C 274.291 279.226,274.000 279.311,274.000 279.557 C 274.000 279.801,274.225 280.041,274.500 280.090 C 274.775 280.140,270.140 280.275,264.200 280.390 L 253.400 280.600 253.272 281.500 C 253.147 282.382,252.729 282.522,250.269 282.504 C 249.867 282.501,249.343 282.927,249.105 283.450 C 248.733 284.265,247.855 284.630,246.700 284.447 C 246.535 284.421,246.400 284.574,246.400 284.787 C 246.400 285.001,246.099 285.059,245.731 284.918 C 245.223 284.723,245.123 284.823,245.318 285.331 C 245.459 285.699,245.390 286.000,245.164 286.000 C 244.938 286.000,244.867 286.184,245.006 286.410 C 245.145 286.635,245.111 286.794,244.930 286.763 C 244.108 286.620,243.852 286.849,244.400 287.237 C 244.933 287.614,244.933 287.641,244.400 287.480 C 244.070 287.381,243.851 287.081,243.912 286.813 C 243.974 286.544,243.794 286.401,243.512 286.493 C 243.231 286.586,242.942 287.151,242.872 287.749 C 242.774 288.573,242.575 288.783,242.049 288.615 C 241.583 288.468,241.061 288.792,240.465 289.598 C 239.776 290.530,239.266 290.800,238.196 290.800 C 237.057 290.800,236.771 290.975,236.564 291.800 C 236.339 292.696,236.110 292.800,234.357 292.800 C 233.050 292.800,232.400 292.967,232.400 293.304 C 232.400 294.491,230.839 294.767,223.932 294.801 C 212.831 294.854,213.722 294.939,213.436 293.800 C 213.211 292.903,212.982 292.800,211.220 292.800 C 209.487 292.800,209.241 292.694,209.128 291.900 C 208.995 290.966,208.914 290.933,206.600 290.850 C 205.392 290.807,205.200 290.665,205.200 289.813 C 205.200 289.056,205.044 288.885,204.534 289.081 C 204.048 289.267,203.958 289.192,204.200 288.800 C 204.437 288.416,204.355 288.332,203.910 288.503 C 203.461 288.675,203.225 288.423,203.060 287.600 C 202.901 286.803,202.556 286.421,201.916 286.330 C 201.311 286.244,200.955 285.884,200.868 285.269 C 200.790 284.717,200.531 284.418,200.232 284.532 C 199.613 284.770,199.136 284.447,198.559 283.400 C 198.254 282.845,197.622 282.563,196.497 282.479 C 195.159 282.379,194.833 282.187,194.630 281.379 C 194.395 280.441,194.248 280.400,191.155 280.400 C 188.532 280.400,187.735 280.250,186.909 279.600 C 185.475 278.472,181.329 278.469,179.898 279.594 C 179.087 280.232,178.227 280.398,175.526 280.436 C 172.463 280.479,172.159 280.555,172.103 281.287 C 172.023 282.357,172.057 282.339,169.863 282.453 C 168.234 282.537,167.975 282.661,168.136 283.277 C 168.240 283.675,168.162 283.900,167.963 283.777 C 167.763 283.654,167.600 283.743,167.600 283.976 C 167.600 284.209,167.150 284.400,166.600 284.400 C 165.800 284.400,165.600 284.600,165.600 285.400 C 165.600 286.351,165.255 286.583,164.077 286.425 C 163.790 286.386,163.586 286.590,163.625 286.877 C 163.823 288.356,163.577 288.847,162.700 288.725 C 161.978 288.625,161.775 288.817,161.673 289.700 C 161.604 290.305,161.379 290.822,161.173 290.850 C 160.968 290.877,160.588 290.923,160.329 290.950 C 159.792 291.007,159.149 293.015,159.541 293.408 C 159.684 293.550,159.537 293.607,159.215 293.533 C 158.893 293.460,158.445 293.805,158.220 294.300 C 157.995 294.795,157.708 295.200,157.583 295.200 C 157.457 295.200,157.399 296.100,157.452 297.200 C 157.543 299.065,157.486 299.200,156.602 299.200 C 155.327 299.200,155.259 299.590,155.268 306.807 C 155.277 314.303,155.394 315.062,156.591 315.362 C 157.374 315.559,157.486 315.815,157.393 317.193 C 157.333 318.074,157.443 318.697,157.637 318.577 C 157.832 318.457,157.884 318.638,157.753 318.979 C 157.567 319.464,157.809 319.601,158.857 319.606 C 159.770 319.610,160.025 319.723,159.653 319.959 C 158.900 320.436,159.769 323.073,160.785 323.395 C 161.189 323.524,161.634 324.080,161.772 324.631 C 161.910 325.182,162.198 325.525,162.412 325.393 C 162.625 325.261,162.800 325.343,162.800 325.576 C 162.800 325.809,163.173 326.000,163.629 326.000 C 164.514 326.000,165.600 326.866,165.600 327.571 C 165.600 327.921,166.941 328.193,168.041 328.067 C 168.173 328.052,168.197 328.481,168.094 329.020 C 167.935 329.853,168.060 330.000,168.926 330.000 C 169.678 330.000,169.978 330.236,170.072 330.900 C 170.154 331.478,170.522 331.846,171.100 331.928 C 171.800 332.027,172.000 332.317,172.000 333.228 C 172.000 333.873,172.193 334.400,172.429 334.400 C 173.389 334.400,173.974 335.622,174.084 337.856 C 174.187 339.941,174.300 340.214,175.100 340.328 C 175.811 340.429,176.005 340.722,176.025 341.728 C 176.046 342.814,176.039 348.982,176.008 356.143 C 176.002 357.685,175.879 358.039,175.413 357.860 C 175.090 357.736,174.702 357.835,174.551 358.079 C 174.375 358.364,174.478 358.419,174.838 358.232 C 175.189 358.050,175.164 358.140,174.772 358.470 C 174.368 358.811,174.111 359.785,174.052 361.200 C 173.986 362.780,173.735 363.625,173.160 364.200 C 172.398 364.962,172.373 364.963,172.648 364.234 C 172.849 363.701,172.794 363.556,172.468 363.758 C 172.211 363.917,172.000 364.949,172.000 366.051 C 172.000 367.843,171.919 368.028,171.234 367.811 C 170.812 367.677,170.334 367.783,170.172 368.046 C 169.995 368.333,170.046 368.419,170.301 368.261 C 170.576 368.091,170.563 368.344,170.263 368.984 C 170.008 369.526,169.440 370.021,169.000 370.084 C 168.560 370.148,168.195 370.470,168.189 370.800 C 168.184 371.130,168.073 371.580,167.944 371.800 C 167.814 372.020,167.762 372.968,167.827 373.907 C 167.892 374.846,167.790 375.518,167.601 375.400 C 166.886 374.959,166.707 376.142,167.410 376.657 C 167.812 376.951,168.022 377.311,167.876 377.457 C 167.730 377.604,168.150 378.239,168.810 378.870 L 170.010 380.016 197.505 379.815 C 236.408 379.530,253.692 379.127,253.900 378.500 C 254.023 378.131,255.575 378.000,259.833 378.000 C 263.667 378.000,265.600 377.856,265.600 377.571 C 265.600 376.540,266.811 376.000,269.125 376.000 C 271.225 376.000,271.586 375.881,272.163 375.000 C 272.735 374.127,273.108 374.000,275.096 374.000 C 277.002 374.000,277.509 373.844,278.195 373.045 C 278.692 372.467,279.614 372.009,280.534 371.885 C 281.867 371.706,283.149 370.755,283.187 369.919 C 283.194 369.765,284.325 369.585,285.700 369.519 C 287.945 369.412,288.213 369.308,288.328 368.500 C 288.440 367.709,288.689 367.600,290.384 367.600 C 292.108 367.600,292.340 367.494,292.564 366.600 C 292.777 365.754,293.048 365.600,294.328 365.600 C 296.622 365.600,297.746 364.196,295.700 363.887 C 295.095 363.795,295.590 363.690,296.800 363.654 C 299.829 363.564,300.800 363.249,300.800 362.353 C 300.800 361.939,301.025 361.587,301.300 361.570 C 302.073 361.524,303.745 361.211,304.300 361.008 C 304.575 360.907,304.800 360.459,304.800 360.013 C 304.800 359.376,305.060 359.200,306.000 359.200 C 307.006 359.200,307.200 359.042,307.200 358.222 C 307.200 357.339,307.385 357.232,309.100 357.122 C 310.721 357.018,311.019 356.868,311.128 356.100 C 311.224 355.421,311.520 355.200,312.333 355.200 C 313.062 355.200,313.538 354.912,313.805 354.309 C 314.079 353.690,314.720 353.315,315.900 353.085 C 317.202 352.831,317.600 352.571,317.600 351.976 C 317.600 351.549,317.780 351.178,318.000 351.150 C 318.220 351.123,318.625 351.078,318.900 351.050 C 319.175 351.023,319.457 350.505,319.527 349.900 C 319.645 348.870,320.339 348.515,321.741 348.766 C 322.584 348.917,323.600 348.280,323.600 347.600 C 323.600 347.083,323.938 346.814,324.700 346.727 C 325.488 346.636,325.836 346.344,325.928 345.700 C 326.019 345.057,326.325 344.800,327.001 344.800 C 327.735 344.800,327.975 344.554,328.073 343.700 C 328.164 342.916,328.398 342.633,328.891 342.715 C 329.760 342.861,331.600 341.683,331.600 340.981 C 331.600 340.691,331.960 340.340,332.400 340.200 C 332.841 340.060,333.380 339.611,333.600 339.201 C 333.819 338.791,334.404 338.398,334.899 338.328 C 335.395 338.258,335.975 337.802,336.188 337.316 C 336.401 336.830,336.941 336.380,337.388 336.316 C 337.879 336.246,338.251 335.844,338.328 335.300 C 338.411 334.717,338.731 334.400,339.238 334.400 C 339.696 334.400,340.172 334.001,340.387 333.434 C 340.589 332.903,341.115 332.354,341.557 332.214 C 341.998 332.074,342.474 331.598,342.614 331.157 C 342.754 330.715,343.303 330.189,343.834 329.987 C 344.401 329.772,344.800 329.296,344.800 328.838 C 344.800 328.331,345.117 328.011,345.700 327.928 C 346.270 327.847,346.646 327.479,346.725 326.925 C 346.802 326.379,347.179 326.002,347.725 325.925 C 348.278 325.846,348.647 325.470,348.728 324.901 C 348.807 324.340,349.221 323.910,349.828 323.757 C 350.423 323.608,350.800 323.224,350.800 322.767 C 350.800 322.357,351.591 321.230,352.558 320.263 C 354.518 318.303,355.200 317.224,355.200 316.082 C 355.200 315.475,355.413 315.352,356.200 315.502 C 357.087 315.672,357.200 315.558,357.200 314.489 C 357.200 313.770,357.450 313.190,357.821 313.047 C 358.216 312.896,358.341 312.972,358.165 313.256 C 357.999 313.525,358.110 313.631,358.444 313.521 C 358.750 313.421,359.056 312.868,359.124 312.294 C 359.210 311.573,359.520 311.211,360.124 311.125 C 360.820 311.026,361.075 310.610,361.367 309.100 C 361.683 307.464,361.867 307.200,362.692 307.200 C 363.450 307.200,363.624 307.016,363.525 306.322 C 363.431 305.665,363.652 305.384,364.400 305.206 C 365.114 305.036,365.436 304.658,365.527 303.884 C 365.600 303.256,365.900 302.800,366.239 302.800 C 366.977 302.800,367.480 301.552,367.569 299.500 C 367.590 299.028,367.926 298.800,368.600 298.800 C 369.475 298.800,369.600 298.626,369.600 297.412 C 369.600 296.334,369.868 295.826,370.800 295.137 C 371.460 294.649,372.000 293.952,372.000 293.589 C 372.000 293.226,372.450 292.723,373.000 292.473 C 373.852 292.085,374.000 291.750,374.000 290.209 C 374.000 288.546,374.081 288.400,375.000 288.400 C 375.880 288.400,376.000 288.229,376.000 286.971 C 376.000 285.574,376.717 284.400,377.571 284.400 C 377.807 284.400,378.000 283.873,378.000 283.228 C 378.000 282.317,378.200 282.027,378.900 281.928 C 379.541 281.837,379.791 281.541,379.768 280.900 C 379.751 280.405,379.875 280.000,380.045 280.000 C 380.215 280.000,380.283 279.632,380.197 279.183 C 380.086 278.608,380.322 278.258,380.992 278.003 C 381.742 277.718,382.006 277.235,382.230 275.738 C 382.399 274.615,382.830 273.580,383.283 273.213 C 383.722 272.858,384.148 271.866,384.278 270.896 C 384.422 269.822,384.710 269.200,385.063 269.200 C 385.815 269.200,386.400 267.530,386.400 265.382 C 386.400 263.831,386.522 263.585,387.400 263.364 C 388.323 263.133,388.400 262.935,388.400 260.786 C 388.400 258.737,388.529 258.357,389.473 257.614 C 390.373 256.906,390.555 256.436,390.597 254.710 C 390.626 253.493,390.845 252.585,391.132 252.489 C 392.080 252.173,392.759 250.106,392.747 247.571 C 392.739 246.062,392.914 244.962,393.174 244.875 C 394.487 244.438,394.800 243.494,394.800 239.971 C 394.800 238.007,394.967 236.400,395.171 236.400 C 396.364 236.400,396.774 235.097,396.764 231.342 C 396.756 228.543,396.910 227.338,397.337 226.857 C 398.698 225.325,398.796 223.242,398.798 195.770 L 398.800 168.539 397.800 167.600 C 396.892 166.747,396.800 166.360,396.800 163.410 C 396.800 161.364,396.615 159.960,396.300 159.621 C 395.900 159.190,395.900 159.139,396.300 159.365 C 397.311 159.936,396.834 157.714,395.800 157.037 C 394.862 156.422,394.800 156.169,394.800 152.948 C 394.800 149.763,394.728 149.458,393.800 148.729 C 392.958 148.066,392.800 147.607,392.800 145.821 C 392.800 142.575,392.410 141.184,391.391 140.797 C 390.634 140.509,390.513 140.201,390.607 138.806 C 390.714 137.233,389.755 135.600,388.725 135.600 C 388.546 135.600,388.400 134.430,388.400 133.000 C 388.400 130.493,388.364 130.400,387.400 130.400 C 386.457 130.400,386.400 130.277,386.400 128.242 C 386.400 126.464,386.225 125.918,385.407 125.142 C 384.861 124.624,384.411 123.803,384.407 123.319 C 384.397 122.054,383.563 120.400,382.936 120.400 C 382.607 120.400,382.400 119.936,382.400 119.200 C 382.400 118.380,382.203 118.000,381.776 118.000 C 381.433 118.000,381.272 117.807,381.419 117.569 C 381.565 117.333,381.312 116.791,380.856 116.367 C 380.400 115.942,380.116 115.364,380.224 115.082 C 380.332 114.800,379.876 114.048,379.210 113.410 C 378.340 112.576,378.000 111.878,378.000 110.925 C 378.000 109.778,377.865 109.600,377.000 109.600 C 376.187 109.600,375.991 109.394,375.954 108.500 C 375.928 107.895,375.866 107.220,375.815 107.000 C 375.764 106.780,375.694 106.396,375.661 106.147 C 375.627 105.897,375.240 105.599,374.800 105.484 C 374.286 105.350,374.000 104.938,374.000 104.332 C 374.000 103.742,373.667 103.242,373.109 102.995 C 372.553 102.749,372.049 101.997,371.772 101.000 C 371.528 100.120,371.119 99.377,370.864 99.350 C 370.609 99.323,370.232 99.278,370.027 99.250 C 369.821 99.223,369.596 98.705,369.527 98.100 C 369.425 97.217,369.222 97.025,368.500 97.125 C 367.743 97.230,367.600 97.064,367.600 96.080 C 367.600 95.405,367.212 94.504,366.686 93.955 C 366.183 93.430,365.553 92.497,365.286 91.882 C 364.976 91.168,364.549 90.807,364.101 90.882 C 363.576 90.970,363.432 90.771,363.527 90.089 C 363.626 89.379,363.383 89.083,362.428 88.750 C 361.753 88.514,361.291 88.176,361.402 87.997 C 361.807 87.342,361.089 86.400,360.185 86.400 C 359.526 86.400,359.218 86.138,359.128 85.500 C 359.046 84.922,358.678 84.554,358.100 84.472 C 357.449 84.380,357.200 84.076,357.200 83.372 C 357.200 82.602,356.992 82.400,356.200 82.400 C 355.400 82.400,355.200 82.200,355.200 81.400 C 355.200 80.850,354.969 80.400,354.686 80.400 C 354.404 80.400,353.858 79.868,353.474 79.217 C 353.055 78.509,352.552 78.120,352.218 78.248 C 351.687 78.452,350.471 76.831,350.832 76.400 C 350.925 76.290,350.516 76.144,349.925 76.076 C 349.172 75.989,348.812 75.689,348.725 75.076 C 348.646 74.521,348.270 74.153,347.700 74.072 C 347.049 73.980,346.800 73.676,346.800 72.972 C 346.800 72.202,346.592 72.000,345.800 72.000 C 345.000 72.000,344.800 71.800,344.800 71.000 C 344.800 70.228,344.594 70.000,343.895 70.000 C 343.340 70.000,342.837 69.652,342.595 69.100 C 342.378 68.605,341.793 68.022,341.296 67.804 C 340.799 67.586,340.292 67.091,340.169 66.704 C 340.047 66.317,339.631 66.000,339.245 66.000 C 338.860 66.000,338.149 65.545,337.665 64.989 C 337.181 64.432,336.258 63.872,335.615 63.743 C 334.818 63.584,334.405 63.235,334.322 62.654 C 334.238 62.064,333.868 61.762,333.125 61.676 C 332.372 61.589,332.012 61.289,331.925 60.676 C 331.847 60.127,331.501 59.784,331.000 59.757 C 330.560 59.734,329.894 59.583,329.519 59.422 C 329.145 59.261,328.662 59.238,328.446 59.371 C 328.231 59.505,327.997 59.116,327.927 58.507 C 327.815 57.534,327.654 57.417,326.600 57.539 C 325.940 57.615,325.529 57.547,325.686 57.386 C 326.312 56.748,325.123 55.597,323.582 55.351 C 322.347 55.153,321.936 54.883,321.751 54.148 C 321.561 53.389,321.249 53.200,320.186 53.200 C 319.246 53.200,318.628 52.908,318.071 52.200 C 317.597 51.597,316.877 51.200,316.257 51.200 C 315.663 51.200,315.060 50.885,314.829 50.455 C 314.228 49.330,312.156 48.573,311.400 49.200 C 310.897 49.617,310.800 49.554,310.800 48.812 C 310.800 48.262,310.496 47.846,310.000 47.716 C 309.560 47.601,309.200 47.373,309.200 47.208 C 309.200 47.044,308.585 46.978,307.834 47.061 C 306.724 47.183,306.306 47.007,305.610 46.121 C 304.963 45.299,304.291 44.978,302.876 44.816 C 301.314 44.636,300.979 44.449,300.872 43.700 C 300.755 42.876,300.533 42.800,298.240 42.800 C 295.978 42.800,295.683 42.703,295.200 41.800 C 294.733 40.928,294.396 40.800,292.560 40.800 C 290.682 40.800,290.442 40.703,290.328 39.900 C 290.230 39.209,289.945 39.005,289.100 39.022 C 288.495 39.035,288.000 38.912,288.000 38.750 C 288.000 38.588,287.140 38.527,286.089 38.614 C 284.422 38.753,284.128 38.660,283.789 37.890 C 283.521 37.282,282.902 36.920,281.800 36.727 C 279.756 36.368,193.423 36.310,193.067 36.667 M38.395 85.466 C 37.356 86.340,36.758 86.522,35.064 86.483 C 32.531 86.424,30.945 87.001,30.662 88.085 C 30.520 88.626,30.236 88.823,29.824 88.665 C 28.765 88.258,27.951 88.806,28.214 89.747 C 28.398 90.406,28.361 90.466,28.048 90.011 C 27.699 89.504,27.606 89.518,27.379 90.111 C 27.233 90.490,26.839 90.800,26.501 90.800 C 26.164 90.800,25.630 91.115,25.314 91.500 C 24.999 91.885,24.872 91.947,25.032 91.638 C 25.229 91.259,25.167 91.173,24.841 91.375 C 24.575 91.539,24.428 91.882,24.514 92.137 C 24.599 92.391,24.165 92.814,23.549 93.075 C 22.864 93.365,22.321 93.974,22.154 94.640 C 21.831 95.929,20.794 97.244,20.329 96.956 C 20.148 96.844,20.000 97.303,20.000 97.976 C 20.000 98.649,19.820 99.223,19.600 99.250 C 19.380 99.278,18.992 99.323,18.738 99.350 C 18.219 99.406,17.988 100.273,17.881 102.565 C 17.830 103.662,17.490 104.448,16.744 105.194 C 15.640 106.298,15.115 109.536,16.140 108.922 C 16.393 108.770,16.357 108.946,16.060 109.313 C 14.568 111.153,16.005 122.386,17.606 121.397 C 17.764 121.299,17.893 122.093,17.893 123.161 C 17.893 125.430,18.160 126.000,19.224 126.000 C 19.723 126.000,20.000 126.274,20.000 126.769 C 20.000 127.675,22.341 130.199,23.182 130.201 C 23.502 130.202,23.871 130.652,24.000 131.201 C 24.152 131.845,24.514 132.200,25.018 132.200 C 25.532 132.200,25.869 132.543,26.002 133.200 C 26.167 134.021,26.471 134.222,27.691 134.324 C 28.698 134.407,29.429 134.765,29.953 135.431 L 30.726 136.414 40.663 136.307 L 50.600 136.200 50.728 135.300 C 50.835 134.545,51.103 134.400,52.395 134.400 C 54.451 134.400,55.200 134.068,55.200 133.157 C 55.200 132.466,55.904 132.165,57.000 132.386 C 57.220 132.430,57.266 132.333,57.102 132.169 C 56.939 132.005,57.209 131.661,57.702 131.403 C 58.196 131.145,58.555 130.724,58.500 130.467 C 58.439 130.181,58.942 130.000,59.800 130.000 C 61.027 130.000,61.200 129.876,61.200 129.000 C 61.200 128.040,61.674 127.784,63.106 127.972 C 63.385 128.008,63.588 127.894,63.559 127.719 C 63.328 126.349,63.662 126.040,65.500 125.922 C 67.121 125.818,67.419 125.668,67.528 124.900 C 67.645 124.075,67.866 124.000,70.197 124.000 C 72.324 124.000,72.932 123.837,73.927 123.000 C 75.187 121.939,87.200 121.384,87.200 122.386 C 87.200 123.124,89.015 123.786,91.600 123.993 C 93.807 124.169,94.260 124.336,94.595 125.100 C 94.824 125.623,95.342 126.000,95.831 126.000 C 96.339 126.000,96.852 126.395,97.127 127.000 C 97.394 127.585,97.917 128.000,98.388 128.000 C 98.831 128.000,99.707 128.538,100.335 129.195 C 100.963 129.852,101.579 130.288,101.703 130.163 C 101.828 130.039,102.339 130.491,102.840 131.169 C 103.341 131.846,104.064 132.400,104.447 132.400 C 104.866 132.400,105.195 132.760,105.272 133.300 C 105.364 133.947,105.712 134.236,106.509 134.327 C 107.119 134.398,108.056 134.893,108.591 135.427 C 109.460 136.296,109.907 136.400,112.777 136.400 C 115.871 136.400,115.987 136.433,115.895 137.300 C 115.803 138.171,115.926 138.204,119.638 138.314 C 123.693 138.434,125.600 138.017,125.600 137.010 C 125.600 136.515,126.195 136.400,128.757 136.400 C 131.790 136.400,131.923 136.361,132.164 135.400 C 132.375 134.558,132.652 134.399,133.908 134.394 C 135.773 134.386,136.572 133.901,136.318 132.930 C 136.163 132.336,136.338 132.180,137.151 132.189 C 137.932 132.197,138.232 131.958,138.391 131.200 C 138.546 130.459,138.858 130.199,139.595 130.195 C 140.387 130.192,140.592 129.987,140.595 129.195 C 140.599 128.456,140.857 128.148,141.600 127.997 C 142.241 127.868,142.645 127.482,142.725 126.922 C 142.802 126.379,143.180 126.002,143.725 125.925 C 144.464 125.819,144.619 125.504,144.722 123.902 C 144.827 122.270,144.981 121.970,145.822 121.759 C 146.745 121.527,146.800 121.353,146.800 118.651 C 146.800 116.067,146.887 115.751,147.700 115.395 C 149.186 114.743,149.286 105.612,147.822 104.255 C 147.029 103.521,146.804 102.895,146.746 101.268 C 146.687 99.596,146.497 99.094,145.737 98.595 C 145.067 98.156,144.800 97.605,144.800 96.657 C 144.800 95.042,144.469 94.649,143.660 95.303 C 143.171 95.700,143.107 95.699,143.347 95.300 C 143.512 95.025,143.469 94.800,143.251 94.800 C 143.034 94.800,142.798 94.402,142.728 93.916 C 142.647 93.359,142.232 92.946,141.601 92.799 C 140.957 92.648,140.602 92.287,140.601 91.782 C 140.600 91.227,140.281 90.963,139.500 90.873 C 138.621 90.772,138.400 90.542,138.400 89.727 C 138.400 88.854,138.255 88.734,137.400 88.898 C 136.850 89.003,136.400 88.959,136.400 88.800 C 136.400 88.640,135.950 88.559,135.400 88.620 C 134.680 88.699,134.400 88.538,134.400 88.045 C 134.400 86.739,133.522 86.400,130.144 86.400 C 128.331 86.400,126.736 86.220,126.600 86.000 C 126.278 85.479,121.322 85.479,121.000 86.000 C 120.864 86.220,119.251 86.400,117.416 86.400 L 114.078 86.400 113.665 87.585 C 113.291 88.657,113.107 88.758,111.726 88.640 C 109.992 88.491,108.000 89.331,108.000 90.210 C 108.000 90.535,107.640 90.823,107.200 90.850 C 105.551 90.953,105.408 91.016,105.276 91.699 C 105.176 92.218,105.329 92.337,105.871 92.161 C 106.478 91.964,106.500 91.997,106.000 92.356 C 105.670 92.594,104.905 92.791,104.300 92.794 C 103.348 92.799,103.200 92.960,103.200 93.987 C 103.200 94.845,103.043 95.115,102.636 94.959 C 101.945 94.693,99.600 95.853,99.600 96.459 C 99.600 96.736,99.859 96.695,100.300 96.349 C 100.939 95.848,100.951 95.863,100.432 96.523 C 100.030 97.035,99.443 97.211,98.432 97.123 C 97.106 97.009,97.008 97.076,97.104 98.032 C 97.204 99.016,97.121 99.062,95.304 99.024 C 92.750 98.971,91.011 99.327,90.950 99.916 C 90.923 100.182,90.877 100.580,90.850 100.800 C 90.765 101.480,75.600 101.330,75.600 100.649 C 75.600 99.646,74.447 99.118,72.127 99.058 C 70.036 99.005,69.814 98.912,69.591 98.000 C 69.403 97.231,69.121 97.023,68.368 97.100 C 67.680 97.171,67.273 96.934,66.995 96.300 C 66.745 95.731,66.048 95.264,65.100 95.029 C 63.751 94.696,63.375 94.227,63.553 93.100 C 63.579 92.935,63.062 92.800,62.405 92.800 C 61.404 92.800,61.225 92.654,61.305 91.900 C 61.380 91.187,61.172 90.974,60.300 90.873 C 59.436 90.774,59.200 90.538,59.200 89.773 C 59.200 88.771,58.921 88.669,56.324 88.720 C 55.448 88.737,55.224 88.542,55.124 87.671 C 55.007 86.663,54.854 86.588,52.508 86.400 C 51.021 86.281,49.708 85.934,49.251 85.541 C 48.079 84.530,46.845 84.266,46.104 84.867 C 45.633 85.249,45.532 85.258,45.747 84.900 C 46.152 84.226,41.952 84.208,41.280 84.880 C 40.907 85.253,40.800 85.253,40.800 84.880 C 40.800 84.080,39.734 84.339,38.395 85.466 M70.800 132.842 C 70.800 133.065,70.620 133.136,70.400 133.000 C 70.180 132.864,70.000 133.123,70.000 133.576 C 70.000 134.262,69.732 134.408,68.400 134.450 C 65.951 134.527,65.884 134.549,65.768 135.337 C 65.627 136.299,65.650 136.284,63.853 136.567 C 61.911 136.873,61.489 137.133,61.765 137.852 C 61.915 138.243,61.608 138.498,60.792 138.662 C 59.893 138.841,59.600 139.121,59.600 139.801 C 59.600 140.297,59.295 140.949,58.923 141.251 C 58.463 141.624,58.343 141.640,58.547 141.300 C 58.732 140.992,58.625 140.800,58.266 140.800 C 57.622 140.800,57.071 141.868,57.422 142.436 C 57.546 142.636,57.287 142.800,56.847 142.800 C 55.836 142.800,55.442 143.430,55.348 145.200 C 55.239 147.246,55.233 147.267,54.836 147.022 C 53.908 146.448,53.267 147.305,53.267 149.119 C 53.267 150.141,53.071 151.043,52.831 151.123 C 52.591 151.203,52.495 151.431,52.618 151.630 C 52.741 151.828,52.531 151.872,52.151 151.726 C 51.616 151.521,51.521 151.616,51.726 152.151 C 51.872 152.531,51.827 152.740,51.626 152.616 C 51.411 152.483,51.243 155.439,51.218 159.784 L 51.176 167.179 52.188 167.433 C 53.087 167.658,53.200 167.892,53.200 169.528 C 53.200 170.996,53.400 171.536,54.182 172.185 C 54.797 172.695,55.217 173.523,55.306 174.400 C 55.426 175.586,55.616 175.820,56.544 175.929 C 57.411 176.030,57.615 176.240,57.520 176.929 C 57.425 177.619,57.629 177.826,58.500 177.927 C 59.364 178.026,59.600 178.262,59.600 179.027 C 59.600 179.639,59.830 180.000,60.219 180.000 C 60.560 180.000,61.284 180.481,61.830 181.070 C 62.586 181.886,63.260 182.164,64.676 182.244 C 66.074 182.323,66.767 182.604,67.490 183.384 L 68.449 184.418 76.125 184.384 L 83.800 184.349 84.650 183.289 C 85.327 182.446,85.796 182.250,86.950 182.327 C 87.748 182.381,88.400 182.239,88.400 182.013 C 88.400 181.786,88.670 181.600,89.000 181.600 C 89.555 181.600,89.787 181.103,89.630 180.249 C 89.595 180.056,89.963 180.002,90.448 180.128 C 91.620 180.435,92.800 179.761,92.800 178.786 C 92.800 178.214,93.073 178.000,93.800 178.000 C 94.350 178.000,94.800 177.807,94.800 177.571 C 94.800 176.781,95.872 176.060,97.242 175.930 C 98.297 175.829,98.629 175.599,98.728 174.900 C 98.800 174.391,99.148 173.987,99.528 173.969 C 101.511 173.879,102.800 173.373,102.800 172.686 C 102.800 172.349,103.589 172.006,104.900 171.773 C 106.636 171.465,107.022 171.244,107.128 170.500 L 107.256 169.600 116.047 169.600 L 124.838 169.600 125.732 170.639 C 126.381 171.394,127.143 171.737,128.513 171.891 C 130.006 172.060,130.400 172.259,130.400 172.844 C 130.400 173.566,131.652 174.149,132.846 173.982 C 134.053 173.814,134.400 174.041,134.400 175.000 C 134.400 175.792,134.602 176.000,135.372 176.000 C 136.076 176.000,136.380 176.249,136.472 176.900 C 136.564 177.544,136.912 177.836,137.700 177.927 C 138.564 178.026,138.800 178.262,138.800 179.027 C 138.800 179.839,138.996 180.000,139.987 180.000 C 140.816 180.000,141.113 180.162,140.969 180.536 C 140.662 181.337,141.841 182.114,143.516 182.214 C 144.538 182.276,145.042 182.513,145.134 182.975 C 145.325 183.933,146.863 184.400,149.826 184.400 C 151.242 184.400,152.400 184.562,152.400 184.761 C 152.400 185.988,157.239 186.361,158.378 185.222 C 158.996 184.604,159.790 184.426,162.218 184.362 C 164.645 184.298,165.500 184.107,166.341 183.441 C 167.920 182.191,169.356 181.424,168.980 182.032 C 168.785 182.347,168.842 182.421,169.138 182.238 C 169.392 182.081,169.600 181.603,169.600 181.176 C 169.600 180.749,169.825 180.373,170.100 180.341 C 170.375 180.308,170.870 180.245,171.200 180.200 C 171.530 180.155,172.191 180.092,172.669 180.059 C 173.284 180.017,173.673 179.591,174.000 178.600 C 174.254 177.830,174.639 177.200,174.855 177.200 C 175.071 177.200,175.136 177.380,175.000 177.600 C 174.864 177.820,175.033 178.000,175.376 178.000 C 175.770 178.000,176.000 177.642,176.000 177.028 C 176.000 176.324,176.249 176.020,176.900 175.928 C 177.544 175.836,177.836 175.488,177.927 174.700 C 178.014 173.938,178.283 173.600,178.800 173.600 C 179.572 173.600,180.084 172.563,180.182 170.800 C 180.222 170.082,180.498 169.762,181.159 169.667 C 181.925 169.556,182.053 169.340,181.913 168.388 C 181.820 167.758,181.874 167.322,182.031 167.419 C 182.188 167.516,182.330 166.564,182.345 165.303 C 182.360 164.041,182.562 162.946,182.794 162.869 C 184.847 162.184,184.811 151.443,182.752 150.170 C 182.558 150.051,182.400 149.233,182.400 148.353 C 182.400 147.473,182.246 146.848,182.058 146.964 C 181.870 147.081,181.797 146.749,181.897 146.227 C 182.031 145.524,181.862 145.210,181.239 145.012 C 180.491 144.775,180.232 144.350,180.340 143.537 C 180.360 143.392,179.751 142.592,178.988 141.759 C 178.224 140.925,177.600 140.021,177.600 139.749 C 177.600 139.250,176.154 138.578,175.385 138.720 C 175.157 138.762,174.652 138.257,174.262 137.598 C 173.784 136.787,173.239 136.400,172.577 136.400 C 171.867 136.400,171.600 136.182,171.600 135.600 C 171.600 134.698,171.638 134.714,169.238 134.601 C 168.227 134.553,167.289 134.264,167.038 133.924 C 166.098 132.649,164.900 132.441,158.651 132.463 C 152.411 132.484,151.602 132.647,151.136 133.971 C 151.061 134.184,150.151 134.400,149.114 134.453 C 147.962 134.511,147.147 134.761,147.019 135.095 C 146.904 135.396,146.985 135.533,147.200 135.400 C 147.422 135.263,147.488 135.427,147.353 135.779 C 147.141 136.332,146.078 136.625,145.026 136.423 C 143.865 136.199,142.800 136.873,142.800 137.831 C 142.800 138.390,142.636 138.746,142.436 138.622 C 141.739 138.192,140.800 138.892,140.800 139.843 C 140.800 140.617,140.590 140.802,139.700 140.813 C 138.516 140.826,137.200 141.619,137.200 142.319 C 137.200 142.556,136.615 142.806,135.900 142.875 C 135.185 142.944,134.578 143.225,134.550 143.500 C 134.523 143.775,134.478 144.180,134.450 144.400 C 134.422 144.620,133.849 144.800,133.176 144.800 C 132.503 144.800,132.045 144.950,132.159 145.133 C 132.272 145.317,132.103 145.467,131.782 145.467 C 131.462 145.467,131.200 145.281,131.200 145.053 C 131.200 144.378,130.494 145.310,130.334 146.196 C 130.207 146.902,129.853 146.998,127.215 147.038 C 125.369 147.065,124.181 147.257,124.086 147.541 C 124.002 147.794,123.444 148.000,122.847 148.000 C 122.249 148.000,121.589 148.163,121.380 148.363 C 120.959 148.766,113.986 149.146,114.229 148.753 C 114.710 147.976,112.710 147.156,110.147 147.081 C 107.566 147.005,107.388 146.939,107.194 146.000 C 107.062 145.359,106.703 144.985,106.194 144.959 C 105.757 144.937,104.918 144.892,104.328 144.859 C 103.543 144.816,103.221 144.559,103.128 143.900 C 103.037 143.262,102.687 142.964,101.925 142.876 C 101.172 142.789,100.812 142.489,100.725 141.876 C 100.645 141.320,100.308 140.991,99.800 140.974 C 99.360 140.960,98.417 140.395,97.704 139.718 C 96.992 139.041,96.104 138.513,95.732 138.544 C 95.317 138.578,94.961 138.213,94.811 137.600 C 94.656 136.963,94.239 136.553,93.662 136.469 C 93.152 136.396,92.599 135.924,92.395 135.386 C 92.151 134.744,91.735 134.447,91.116 134.474 C 89.146 134.559,88.400 134.377,88.400 133.814 C 88.400 133.492,88.066 133.049,87.658 132.831 C 86.651 132.292,70.800 132.303,70.800 132.842 M25.760 183.421 C 25.229 184.101,24.549 184.419,23.501 184.479 C 22.677 184.525,22.023 184.752,22.049 184.982 C 22.169 186.072,21.873 186.328,20.211 186.577 C 18.808 186.788,18.306 187.078,17.884 187.923 C 17.589 188.515,17.130 188.954,16.866 188.898 C 16.601 188.841,16.181 189.243,15.932 189.790 C 15.683 190.337,15.165 190.884,14.782 191.006 C 14.063 191.234,13.615 192.336,13.605 193.900 C 13.601 194.696,13.096 194.994,11.964 194.869 C 11.834 194.854,11.705 195.508,11.676 196.321 C 11.638 197.406,11.339 198.030,10.552 198.663 C 9.557 199.464,9.482 199.739,9.510 202.481 C 9.538 205.147,9.456 205.473,8.670 205.818 C 7.324 206.409,7.348 212.402,8.700 212.995 C 9.195 213.212,9.600 213.692,9.600 214.062 C 9.600 214.432,9.721 215.049,9.868 215.433 C 10.065 215.947,9.996 216.045,9.606 215.803 C 9.189 215.546,9.131 215.757,9.338 216.788 C 9.482 217.510,9.600 218.438,9.600 218.850 C 9.600 219.379,9.888 219.600,10.579 219.600 C 11.478 219.600,11.568 219.772,11.679 221.700 C 11.784 223.529,11.916 223.816,12.700 223.928 C 13.351 224.020,13.600 224.324,13.600 225.028 C 13.600 225.798,13.808 226.000,14.600 226.000 C 15.400 226.000,15.600 226.200,15.600 227.000 C 15.600 227.842,15.788 228.000,16.787 228.000 C 17.725 228.000,17.922 228.138,17.722 228.658 C 17.397 229.506,18.600 230.400,20.067 230.400 C 20.806 230.400,21.396 230.728,21.818 231.371 C 22.366 232.207,22.765 232.343,24.676 232.343 C 26.536 232.343,27.077 232.516,28.008 233.408 C 29.557 234.892,37.161 234.816,38.786 233.300 C 39.317 232.805,40.212 232.384,40.775 232.366 C 44.518 232.240,44.597 232.218,44.728 231.300 C 44.852 230.425,45.210 230.223,46.354 230.382 C 47.740 230.576,48.800 229.973,48.800 228.992 C 48.800 228.303,49.020 228.000,49.520 228.000 C 49.916 228.000,50.482 227.775,50.779 227.500 C 51.216 227.094,51.263 227.113,51.026 227.600 C 50.866 227.930,51.178 227.720,51.719 227.134 C 52.260 226.548,53.130 226.008,53.651 225.934 C 54.173 225.860,54.778 225.395,54.995 224.900 C 55.212 224.405,55.699 224.000,56.076 224.000 C 57.167 224.000,58.800 223.122,58.800 222.536 C 58.800 222.241,59.070 221.978,59.400 221.950 C 59.730 221.923,60.180 221.855,60.400 221.800 C 60.620 221.745,60.950 221.678,61.132 221.650 C 61.315 221.623,61.702 221.157,61.992 220.615 C 62.476 219.710,62.782 219.621,65.759 219.515 C 68.680 219.411,69.039 219.311,69.395 218.500 C 69.769 217.647,70.015 217.600,74.067 217.600 C 78.198 217.600,78.349 217.631,78.472 218.500 C 78.590 219.328,78.837 219.410,81.549 219.519 C 84.205 219.625,84.616 219.755,85.680 220.819 C 86.339 221.477,87.291 222.000,87.831 222.000 C 88.513 222.000,88.800 222.223,88.800 222.753 C 88.800 223.551,89.816 223.985,91.700 223.995 C 92.605 223.999,92.800 224.177,92.800 225.000 C 92.800 225.800,93.000 226.000,93.800 226.000 C 94.600 226.000,94.800 226.200,94.800 227.000 C 94.800 227.837,94.989 228.000,95.963 228.000 C 96.925 228.000,97.089 228.137,96.918 228.793 C 96.761 229.391,96.991 229.692,97.850 230.019 C 98.476 230.257,99.325 230.813,99.735 231.253 C 100.146 231.694,100.743 231.954,101.062 231.832 C 101.385 231.707,101.534 231.784,101.397 232.005 C 101.252 232.240,101.805 232.400,102.767 232.400 C 104.056 232.400,104.516 232.606,105.049 233.418 L 105.716 234.437 113.081 234.318 C 120.131 234.205,120.476 234.162,121.123 233.319 C 121.631 232.658,122.300 232.408,123.800 232.319 C 125.526 232.216,125.817 232.077,125.928 231.300 C 126.051 230.434,126.578 230.202,128.123 230.336 C 128.521 230.371,128.746 230.236,128.623 230.037 C 128.500 229.838,128.788 229.776,129.263 229.900 C 129.991 230.091,130.091 229.991,129.900 229.263 C 129.776 228.788,129.822 228.490,130.003 228.602 C 130.184 228.714,130.407 228.580,130.499 228.304 C 130.590 228.029,131.011 227.803,131.433 227.802 C 131.923 227.801,132.246 227.475,132.328 226.900 C 132.419 226.257,132.725 226.000,133.401 226.000 C 134.135 226.000,134.375 225.754,134.473 224.900 C 134.564 224.109,134.825 223.800,135.400 223.800 C 136.035 223.800,136.226 223.492,136.324 222.311 C 136.407 221.305,136.765 220.571,137.424 220.053 C 138.075 219.540,138.400 218.882,138.400 218.071 C 138.400 217.224,138.732 216.597,139.500 215.993 L 140.600 215.128 140.649 206.864 C 140.703 197.972,140.499 196.588,139.200 197.000 C 138.465 197.233,138.400 197.072,138.400 195.027 C 138.400 192.918,138.347 192.800,137.400 192.800 C 136.600 192.800,136.400 192.600,136.400 191.800 C 136.400 191.250,136.169 190.800,135.886 190.800 C 135.604 190.800,135.052 190.257,134.659 189.593 C 134.267 188.929,133.780 188.489,133.576 188.615 C 132.992 188.976,132.200 188.277,132.200 187.400 C 132.200 186.869,131.890 186.556,131.278 186.469 C 130.732 186.392,130.200 185.927,129.972 185.326 C 129.635 184.439,129.503 184.381,128.917 184.857 C 128.453 185.233,128.339 185.246,128.547 184.900 C 128.764 184.539,128.465 184.400,127.467 184.400 C 126.325 184.400,126.043 184.226,125.833 183.390 L 125.580 182.380 116.619 182.415 L 107.659 182.451 107.020 183.425 C 106.521 184.188,106.035 184.400,104.791 184.400 C 103.916 184.400,103.200 184.593,103.200 184.829 C 103.200 185.619,102.128 186.340,100.758 186.470 C 99.616 186.579,99.397 186.759,99.384 187.600 C 99.372 188.341,99.180 188.567,98.644 188.473 C 98.216 188.398,98.026 188.519,98.181 188.769 C 98.335 189.019,98.205 189.100,97.861 188.968 C 97.180 188.707,96.598 189.428,97.193 189.796 C 97.977 190.280,97.588 190.750,96.300 190.875 C 95.304 190.971,94.970 191.210,94.872 191.900 C 94.759 192.697,94.514 192.800,92.729 192.800 C 91.209 192.800,90.765 192.932,90.920 193.336 C 91.299 194.323,90.619 194.693,88.000 194.929 C 86.570 195.057,85.349 195.171,85.287 195.181 C 85.225 195.192,85.024 195.605,84.841 196.100 C 84.448 197.162,67.200 197.580,67.200 196.527 C 67.200 195.722,65.498 194.720,65.126 195.306 C 64.878 195.696,64.811 195.695,64.806 195.300 C 64.802 194.987,64.219 194.800,63.243 194.800 C 61.902 194.800,61.651 194.657,61.427 193.764 C 61.253 193.073,60.972 192.802,60.584 192.951 C 60.252 193.078,59.478 192.663,58.787 191.987 C 58.119 191.334,57.314 190.800,56.998 190.800 C 56.682 190.800,56.030 190.267,55.548 189.616 C 55.067 188.964,54.554 188.505,54.410 188.594 C 54.265 188.683,53.834 188.226,53.451 187.578 C 53.068 186.930,52.424 186.400,52.021 186.400 C 51.571 186.400,51.189 186.012,51.036 185.400 C 50.854 184.676,50.516 184.400,49.811 184.400 C 49.275 184.400,48.382 183.945,47.826 183.390 L 46.816 182.379 36.668 182.413 L 26.521 182.447 25.760 183.421 M179.881 183.408 C 179.465 183.983,178.764 184.400,178.214 184.400 C 176.741 184.400,176.000 184.816,176.000 185.643 C 176.000 186.178,175.715 186.400,175.026 186.400 C 173.358 186.400,171.891 187.139,172.161 187.843 C 172.390 188.438,170.912 189.221,170.404 188.773 C 170.296 188.678,170.114 189.140,170.000 189.799 C 169.851 190.660,169.568 190.999,168.997 190.999 C 168.170 191.000,168.132 191.096,168.050 193.400 C 168.011 194.502,167.835 194.800,167.224 194.800 C 166.400 194.800,165.891 195.367,165.718 196.476 C 165.660 196.847,165.163 197.600,164.614 198.149 L 163.616 199.148 163.641 209.425 L 163.666 219.702 164.712 220.748 C 165.287 221.324,165.767 222.237,165.779 222.777 C 165.794 223.487,166.078 223.826,166.800 223.996 C 167.431 224.146,167.847 224.559,167.928 225.116 C 168.020 225.750,168.330 226.000,169.028 226.000 C 169.810 226.000,170.000 226.205,170.000 227.049 C 170.000 227.984,170.074 228.038,170.677 227.549 C 171.137 227.176,171.257 227.160,171.053 227.500 C 170.864 227.815,170.984 228.000,171.376 228.000 C 171.767 228.000,172.000 228.357,172.000 228.957 C 172.000 229.924,172.943 230.606,173.663 230.161 C 173.878 230.028,174.151 230.290,174.269 230.743 C 174.534 231.755,176.271 232.333,179.148 232.364 C 180.924 232.384,181.445 232.560,182.151 233.382 C 183.422 234.862,191.228 234.860,192.803 233.379 C 193.584 232.645,194.338 232.410,196.203 232.318 C 198.342 232.213,198.614 232.103,198.728 231.300 C 198.851 230.430,199.362 230.219,200.944 230.386 C 201.353 230.430,201.578 230.287,201.443 230.070 C 201.301 229.839,201.525 229.760,201.981 229.879 C 202.573 230.034,202.828 229.829,203.025 229.042 C 203.216 228.283,203.546 228.000,204.243 228.000 C 204.770 228.000,205.200 227.807,205.200 227.571 C 205.200 226.828,206.235 226.070,207.439 225.932 C 208.180 225.848,208.743 225.474,208.995 224.900 C 209.225 224.374,209.742 224.000,210.236 224.000 C 210.702 224.000,211.589 223.531,212.208 222.957 C 212.827 222.384,213.753 221.869,214.266 221.813 C 214.779 221.756,215.572 221.235,216.028 220.655 C 216.781 219.699,217.114 219.600,219.596 219.600 C 222.852 219.600,223.600 219.368,223.600 218.357 C 223.600 217.660,223.950 217.600,228.000 217.600 L 232.400 217.600 232.400 218.600 C 232.400 219.583,232.455 219.600,235.572 219.600 C 238.557 219.600,238.752 219.653,238.872 220.500 C 238.975 221.223,239.370 221.471,240.880 221.763 C 242.339 222.045,242.788 222.315,242.880 222.963 C 242.960 223.520,243.297 223.804,243.886 223.812 C 244.373 223.818,245.283 224.313,245.908 224.912 C 246.567 225.544,247.494 226.000,248.117 226.000 C 248.992 226.000,249.173 226.167,249.095 226.900 C 249.020 227.613,249.228 227.826,250.100 227.927 C 250.949 228.024,251.200 228.266,251.200 228.984 C 251.200 229.913,252.147 230.604,252.836 230.178 C 253.036 230.054,253.200 230.313,253.200 230.753 C 253.200 231.783,253.632 232.027,255.758 232.201 C 256.934 232.297,257.856 232.675,258.607 233.371 C 259.751 234.432,261.918 234.850,261.347 233.900 C 261.113 233.511,261.186 233.513,261.674 233.908 C 262.991 234.975,273.253 234.490,274.213 233.316 C 274.887 232.493,275.371 232.325,277.028 232.337 C 279.277 232.355,279.680 232.181,280.352 230.904 C 280.612 230.411,280.954 230.027,281.112 230.051 C 282.602 230.276,283.657 229.901,283.988 229.031 C 284.202 228.469,284.745 228.006,285.278 227.931 C 285.869 227.847,286.245 227.486,286.325 226.925 C 286.402 226.379,286.779 226.002,287.325 225.925 C 287.943 225.837,288.237 225.477,288.327 224.700 C 288.417 223.916,288.679 223.600,289.239 223.600 C 290.142 223.600,290.517 222.847,290.566 220.940 C 290.594 219.840,290.756 219.600,291.473 219.600 C 292.501 219.600,292.729 218.970,292.763 216.039 C 292.790 213.692,292.914 213.413,293.928 213.405 C 295.151 213.396,294.925 199.446,293.700 199.272 C 292.891 199.157,292.800 198.921,292.800 196.949 C 292.800 195.741,292.652 194.844,292.470 194.957 C 292.289 195.069,292.154 194.773,292.170 194.300 C 292.187 193.825,291.842 193.252,291.400 193.020 C 290.960 192.789,290.582 192.375,290.560 192.100 C 290.466 190.931,290.353 190.800,289.427 190.800 C 288.662 190.800,288.426 190.564,288.327 189.700 C 288.228 188.839,288.010 188.620,287.326 188.691 C 286.643 188.762,286.424 188.542,286.326 187.691 C 286.234 186.894,285.945 186.564,285.254 186.466 C 284.732 186.392,284.218 185.989,284.107 185.566 C 283.997 185.145,283.883 184.789,283.853 184.775 C 283.824 184.761,282.990 184.661,282.000 184.553 C 280.779 184.418,279.982 184.072,279.523 183.477 C 278.868 182.628,278.571 182.597,270.203 182.502 L 261.559 182.405 260.561 183.402 C 260.013 183.951,259.248 184.400,258.862 184.400 C 258.476 184.400,257.918 184.625,257.621 184.900 C 257.187 185.303,257.142 185.295,257.390 184.860 C 257.639 184.421,257.534 184.407,256.826 184.786 C 256.347 185.043,255.830 185.556,255.677 185.926 C 255.522 186.304,254.961 186.600,254.400 186.600 C 253.609 186.600,253.374 186.827,253.274 187.691 C 253.176 188.542,252.957 188.762,252.274 188.691 C 251.590 188.620,251.372 188.839,251.273 189.700 C 251.168 190.614,250.954 190.800,250.002 190.800 C 249.235 190.800,248.578 191.157,248.006 191.883 C 247.403 192.649,246.834 192.942,246.062 192.883 C 245.208 192.818,244.956 192.984,244.907 193.645 C 244.823 194.755,244.902 194.714,242.600 194.832 C 241.500 194.888,240.347 195.129,240.039 195.367 C 239.730 195.605,239.370 195.800,239.239 195.800 C 239.107 195.800,239.000 196.070,238.999 196.400 C 238.999 196.915,237.691 197.003,229.725 197.024 C 224.624 197.038,220.484 196.944,220.525 196.817 C 220.566 196.689,220.195 196.149,219.700 195.617 C 219.183 195.061,218.800 194.872,218.800 195.174 C 218.800 195.596,218.669 195.592,218.123 195.149 C 217.540 194.676,217.493 194.683,217.782 195.200 C 218.055 195.688,218.017 195.707,217.579 195.300 C 217.282 195.025,216.729 194.800,216.348 194.800 C 215.935 194.800,215.604 194.437,215.528 193.900 C 215.419 193.132,215.121 192.982,213.500 192.878 C 211.917 192.777,211.600 192.624,211.600 191.968 C 211.600 191.416,211.248 191.110,210.422 190.944 C 209.522 190.764,209.216 190.460,209.122 189.654 C 209.028 188.839,208.802 188.621,208.126 188.691 C 207.443 188.762,207.224 188.542,207.126 187.691 C 207.038 186.929,206.740 186.563,206.138 186.477 C 205.613 186.402,205.179 185.972,205.030 185.377 C 204.735 184.202,204.000 184.075,204.000 185.200 C 204.000 185.640,203.840 186.000,203.644 186.000 C 203.449 186.000,203.314 185.685,203.344 185.300 C 203.375 184.915,203.130 184.576,202.800 184.546 C 202.470 184.517,201.898 184.472,201.528 184.446 C 201.154 184.420,200.799 184.000,200.728 183.500 L 200.600 182.600 190.600 182.508 L 180.600 182.415 179.881 183.408 M61.802 230.797 C 61.502 231.282,62.302 231.708,62.862 231.362 C 63.157 231.179,63.215 231.253,63.021 231.565 C 62.855 231.834,62.479 231.962,62.185 231.850 C 61.892 231.737,61.595 231.805,61.526 232.001 C 61.457 232.197,60.533 232.401,59.473 232.455 C 57.834 232.538,57.575 232.660,57.736 233.277 C 57.840 233.675,57.762 233.900,57.563 233.777 C 57.363 233.654,57.200 233.721,57.200 233.926 C 57.200 234.132,56.663 234.407,56.007 234.539 C 55.351 234.670,54.419 235.232,53.935 235.789 C 53.451 236.345,52.747 236.800,52.371 236.800 C 51.642 236.800,51.046 237.828,51.422 238.436 C 51.546 238.636,51.394 238.800,51.086 238.800 C 50.150 238.800,49.076 240.323,49.112 241.599 C 49.131 242.259,48.934 242.821,48.673 242.846 C 48.413 242.872,47.937 242.917,47.615 242.946 C 47.215 242.983,47.031 243.471,47.034 244.488 C 47.037 245.454,46.826 246.058,46.431 246.210 C 45.898 246.414,45.896 246.490,46.411 246.823 C 46.858 247.111,46.759 247.178,46.000 247.101 L 45.000 247.000 44.882 256.974 C 44.763 267.046,44.999 269.200,46.222 269.200 C 46.826 269.200,47.372 270.598,47.002 271.196 C 46.767 271.577,46.949 271.652,48.400 271.771 C 48.736 271.799,48.970 272.159,48.931 272.590 C 48.841 273.592,49.885 275.600,50.495 275.600 C 50.756 275.600,51.340 276.064,51.793 276.632 C 52.245 277.199,53.242 277.795,54.008 277.957 C 54.978 278.161,55.366 278.445,55.289 278.895 C 55.135 279.797,55.693 280.043,58.281 280.209 C 60.075 280.324,60.728 280.562,61.483 281.377 C 63.196 283.224,76.000 282.800,76.000 280.896 C 76.000 280.291,76.327 280.177,78.000 280.200 C 79.100 280.215,80.000 280.117,80.000 279.982 C 80.000 279.847,80.405 279.751,80.900 279.768 C 81.541 279.791,81.837 279.541,81.928 278.900 C 82.027 278.200,82.317 278.000,83.228 278.000 C 84.211 278.000,84.400 277.839,84.400 277.000 C 84.400 276.128,84.575 276.000,85.771 276.000 C 87.055 276.000,87.379 275.803,88.724 274.205 C 89.012 273.863,89.416 273.687,89.622 273.814 C 89.828 273.941,90.196 273.607,90.441 273.070 C 90.755 272.380,91.368 271.994,92.542 271.747 C 93.812 271.481,94.229 271.193,94.325 270.520 C 94.433 269.762,94.737 269.623,96.525 269.520 C 98.316 269.416,98.617 269.279,98.726 268.518 C 98.879 267.442,100.218 267.341,112.100 267.516 L 120.000 267.632 120.000 268.616 C 120.000 269.530,120.142 269.600,122.000 269.600 C 123.968 269.600,124.281 269.861,124.044 271.309 C 124.016 271.480,124.535 271.727,125.197 271.859 C 125.859 271.992,126.400 272.352,126.400 272.660 C 126.400 273.299,127.984 274.000,129.426 274.000 C 130.198 274.000,130.400 274.207,130.400 275.000 C 130.400 275.800,130.600 276.000,131.400 276.000 C 132.338 276.000,132.577 276.340,132.436 277.472 C 132.404 277.732,132.878 278.002,133.489 278.072 C 134.209 278.155,134.602 278.436,134.605 278.872 C 134.613 279.900,135.495 280.261,138.256 280.367 C 138.814 280.389,139.092 280.643,139.056 281.100 C 139.015 281.609,139.292 281.796,140.070 281.787 C 140.659 281.779,141.056 281.909,140.954 282.074 C 140.744 282.414,155.752 282.470,156.632 282.133 C 156.944 282.013,157.200 281.593,157.200 281.200 C 157.200 280.307,157.788 280.083,159.714 280.243 C 160.546 280.312,161.140 280.227,161.034 280.055 C 160.927 279.882,161.235 279.754,161.719 279.770 C 162.265 279.789,162.748 279.459,162.994 278.900 C 163.267 278.279,163.733 278.000,164.495 278.000 C 165.407 278.000,165.600 277.825,165.600 277.000 C 165.600 276.200,165.800 276.000,166.600 276.000 C 167.392 276.000,167.600 275.798,167.600 275.028 C 167.600 274.324,167.849 274.020,168.500 273.928 C 169.065 273.848,169.446 273.479,169.523 272.938 C 169.597 272.420,170.026 271.980,170.596 271.837 C 171.119 271.705,171.668 271.194,171.816 270.699 C 171.964 270.205,172.450 269.511,172.896 269.158 C 173.459 268.712,173.767 267.881,173.906 266.432 C 174.062 264.812,174.317 264.211,175.053 263.728 C 176.000 263.108,176.000 263.106,175.994 254.654 C 175.988 246.028,175.921 245.534,174.700 245.083 C 174.219 244.906,174.000 244.394,174.000 243.445 C 174.000 241.548,173.649 240.800,172.757 240.800 C 172.283 240.800,172.000 240.519,172.000 240.049 C 172.000 239.068,171.074 238.320,170.251 238.636 C 169.656 238.864,169.347 238.005,169.553 236.700 C 169.579 236.535,169.150 236.400,168.600 236.400 C 167.800 236.400,167.600 236.200,167.600 235.400 C 167.600 234.618,167.396 234.400,166.664 234.400 C 166.054 234.400,165.570 234.052,165.273 233.400 C 164.850 232.472,164.616 232.400,162.009 232.400 C 159.279 232.400,159.200 232.372,159.200 231.400 L 159.200 230.400 151.700 230.406 C 144.411 230.412,142.803 230.634,143.372 231.555 C 143.524 231.800,143.446 232.000,143.200 232.000 C 142.954 232.000,142.837 232.135,142.939 232.300 C 143.041 232.465,142.152 232.572,140.962 232.537 C 138.927 232.478,138.800 232.531,138.800 233.437 C 138.800 234.339,137.880 234.707,136.285 234.443 C 136.112 234.414,135.572 234.821,135.084 235.347 C 134.597 235.873,133.838 236.372,133.399 236.455 C 132.870 236.556,132.557 236.984,132.471 237.724 C 132.378 238.534,132.149 238.808,131.638 238.721 C 131.250 238.655,130.497 239.095,129.966 239.698 C 129.344 240.404,128.541 240.826,127.710 240.882 C 126.460 240.966,125.763 241.693,126.222 242.436 C 126.400 242.723,123.600 243.028,122.337 242.860 C 122.192 242.840,122.122 243.269,122.182 243.812 C 122.288 244.786,122.247 244.800,119.225 244.800 C 117.374 244.800,115.970 244.990,115.680 245.280 C 115.416 245.544,115.200 245.589,115.200 245.380 C 115.200 245.162,113.365 245.010,110.900 245.022 C 102.895 245.064,101.014 244.854,100.582 243.870 C 100.296 243.220,99.793 242.970,98.587 242.881 C 97.374 242.792,96.878 242.544,96.587 241.881 C 96.324 241.283,95.782 240.960,94.900 240.875 C 94.185 240.806,93.594 240.626,93.587 240.475 C 93.555 239.771,92.324 238.661,91.509 238.601 C 91.011 238.564,90.585 238.279,90.563 237.967 C 90.462 236.561,90.342 236.400,89.400 236.400 C 88.600 236.400,88.400 236.200,88.400 235.400 C 88.400 234.850,88.265 234.421,88.100 234.447 C 87.116 234.603,86.342 234.311,86.117 233.700 C 85.743 232.687,85.189 232.413,83.500 232.406 C 82.452 232.402,82.000 232.223,82.000 231.814 C 82.000 231.492,81.643 231.037,81.208 230.804 C 80.245 230.289,62.120 230.283,61.802 230.797 M23.013 278.421 C 23.093 278.550,22.643 278.580,22.013 278.487 C 21.083 278.351,20.759 278.526,20.289 279.424 C 19.782 280.391,19.466 280.533,17.755 280.565 C 16.084 280.595,15.800 280.715,15.799 281.393 C 15.799 282.002,15.444 282.244,14.279 282.434 C 12.984 282.644,11.238 283.600,12.149 283.600 C 12.318 283.600,12.202 283.855,11.891 284.166 C 11.580 284.477,10.988 284.702,10.576 284.666 C 10.074 284.622,9.757 284.930,9.614 285.600 C 9.496 286.150,9.175 286.618,8.900 286.640 C 7.784 286.729,7.653 286.848,7.400 288.000 C 7.255 288.660,6.975 289.200,6.778 289.200 C 6.278 289.200,5.200 291.387,5.200 292.404 C 5.200 292.888,5.022 293.137,4.782 292.989 C 3.898 292.443,3.200 293.691,3.200 295.820 C 3.200 297.594,3.040 298.068,2.222 298.711 C 1.253 299.473,1.244 299.545,1.241 306.302 L 1.238 313.123 2.219 313.369 C 3.096 313.589,3.200 313.826,3.200 315.608 C 3.200 317.000,3.360 317.600,3.732 317.600 C 4.405 317.600,5.182 319.057,5.294 320.528 C 5.361 321.415,5.619 321.704,6.506 321.881 C 7.369 322.054,7.605 322.304,7.516 322.953 C 7.425 323.615,7.640 323.828,8.500 323.927 C 9.364 324.026,9.600 324.262,9.600 325.027 C 9.600 325.771,9.813 326.000,10.505 326.000 C 11.060 326.000,11.563 326.348,11.805 326.900 C 12.121 327.621,12.578 327.824,14.100 327.922 C 15.660 328.022,16.000 328.180,16.000 328.806 C 16.000 330.043,18.331 330.351,26.800 330.236 C 34.961 330.124,35.803 329.997,36.108 328.832 C 36.232 328.357,36.841 328.032,37.934 327.857 C 38.954 327.694,39.731 327.303,39.987 326.824 C 40.214 326.400,40.895 325.996,41.500 325.927 C 42.270 325.838,42.637 325.542,42.723 324.940 C 42.813 324.303,43.224 324.009,44.308 323.806 C 45.113 323.655,46.174 323.097,46.667 322.566 C 47.159 322.035,47.840 321.600,48.181 321.600 C 48.575 321.600,48.800 321.236,48.800 320.600 C 48.800 319.681,48.946 319.600,50.610 319.600 C 52.172 319.600,52.472 319.463,52.800 318.600 C 53.130 317.732,53.425 317.600,55.033 317.600 C 56.532 317.600,57.035 317.409,57.671 316.600 L 58.458 315.600 66.820 315.600 L 75.182 315.600 75.837 316.600 C 76.619 317.793,78.511 318.038,78.157 316.900 C 77.950 316.233,77.961 316.233,78.390 316.900 C 78.637 317.285,79.178 317.600,79.592 317.600 C 80.068 317.600,80.391 317.931,80.472 318.500 C 80.599 319.390,80.723 319.434,83.450 319.561 C 84.061 319.589,84.368 319.938,84.540 320.800 C 84.706 321.632,85.015 322.000,85.547 322.000 C 86.031 322.000,86.406 322.368,86.564 323.000 C 86.745 323.721,87.085 324.000,87.780 324.000 C 88.476 324.000,88.780 324.251,88.872 324.900 C 88.970 325.590,89.268 325.804,90.149 325.816 C 90.888 325.827,91.629 326.219,92.229 326.916 C 92.742 327.512,93.511 328.000,93.937 328.000 C 94.421 328.000,94.803 328.359,94.953 328.954 C 95.127 329.649,95.538 329.959,96.465 330.095 C 98.807 330.439,114.798 330.320,114.576 329.961 C 114.456 329.767,114.624 329.711,114.948 329.835 C 115.732 330.136,117.200 329.322,117.200 328.586 C 117.200 328.221,117.594 328.000,118.242 328.000 C 118.871 328.000,119.590 327.613,120.053 327.024 C 120.571 326.365,121.305 326.007,122.311 325.924 C 123.479 325.827,123.800 325.632,123.801 325.018 C 123.802 324.514,124.157 324.152,124.800 324.000 C 125.442 323.849,125.870 323.413,125.999 322.782 C 126.110 322.242,126.425 321.782,126.700 321.760 C 127.871 321.666,128.000 321.551,128.000 320.600 C 128.000 319.862,128.212 319.600,128.813 319.600 C 129.733 319.600,129.954 319.191,130.110 317.204 C 130.191 316.180,130.431 315.767,131.010 315.657 C 132.120 315.447,132.387 314.877,132.394 312.700 C 132.397 311.655,132.575 310.800,132.790 310.800 C 133.716 310.800,134.393 308.393,134.359 305.225 C 134.340 303.451,134.174 302.092,133.990 302.206 C 133.806 302.320,133.539 302.226,133.398 301.997 C 133.256 301.768,133.379 301.630,133.670 301.690 C 134.752 301.914,134.366 296.463,133.235 295.548 C 132.486 294.941,132.284 294.418,132.331 293.205 C 132.365 292.334,132.173 291.503,131.896 291.327 C 131.424 291.028,131.239 290.966,130.467 290.850 C 130.284 290.822,130.166 290.395,130.205 289.900 C 130.326 288.381,129.589 286.800,128.761 286.800 C 128.225 286.800,128.000 286.517,128.000 285.843 C 128.000 285.316,127.715 284.776,127.367 284.643 C 126.462 284.295,126.403 284.322,126.370 285.100 C 126.353 285.485,126.124 285.206,125.861 284.480 C 125.300 282.934,124.611 282.415,123.108 282.406 C 122.279 282.401,121.955 282.159,121.764 281.400 C 121.533 280.477,121.335 280.400,119.186 280.400 C 117.150 280.400,116.754 280.268,116.033 279.351 C 115.215 278.311,104.800 277.452,104.800 278.424 C 104.800 278.590,104.450 278.634,104.023 278.522 C 103.528 278.392,102.874 278.689,102.225 279.338 C 101.439 280.124,100.724 280.386,99.103 280.479 C 97.191 280.589,97.009 280.682,97.095 281.500 C 97.173 282.230,96.983 282.407,96.095 282.439 C 93.154 282.545,93.001 282.596,92.872 283.500 C 92.760 284.291,92.136 284.619,91.081 284.441 C 90.906 284.412,90.792 284.615,90.828 284.894 C 90.978 286.031,90.748 286.353,89.700 286.473 C 88.765 286.581,88.617 286.764,88.714 287.694 C 88.819 288.694,88.725 288.776,87.624 288.647 C 86.865 288.559,86.514 288.661,86.675 288.922 C 86.832 289.176,86.674 289.237,86.266 289.081 C 85.242 288.688,84.463 289.155,84.691 290.026 C 84.865 290.694,84.667 290.807,83.247 290.850 C 80.664 290.928,80.607 290.949,80.474 291.884 C 80.359 292.696,80.099 292.777,77.274 292.884 C 75.178 292.963,74.184 293.159,74.150 293.500 C 74.123 293.775,74.078 294.180,74.050 294.400 C 74.020 294.643,71.981 294.800,68.843 294.800 L 63.687 294.800 63.428 293.770 C 63.204 292.878,62.972 292.750,61.685 292.809 C 57.955 292.981,57.262 292.842,57.128 291.900 C 56.995 290.966,56.914 290.933,54.600 290.850 C 53.478 290.810,53.200 290.639,53.200 289.991 C 53.200 288.853,51.466 288.099,50.512 288.822 C 49.905 289.282,49.873 289.279,50.300 288.801 C 51.115 287.886,50.877 287.185,49.600 286.740 C 48.940 286.510,48.400 286.069,48.400 285.761 C 48.400 285.452,48.220 285.200,48.001 285.200 C 47.781 285.200,46.934 284.570,46.118 283.800 C 45.301 283.030,44.233 282.400,43.744 282.400 C 43.127 282.400,42.817 282.125,42.728 281.500 C 42.599 280.596,42.445 280.545,39.500 280.439 C 38.691 280.410,38.400 280.194,38.400 279.624 C 38.400 279.197,38.211 278.731,37.980 278.588 C 37.456 278.264,22.815 278.100,23.013 278.421 M58.300 326.307 C 57.888 326.396,57.600 326.826,57.600 327.352 C 57.600 328.179,57.412 328.247,55.028 328.281 C 52.184 328.322,51.435 328.593,51.768 329.461 C 51.893 329.785,51.816 329.934,51.595 329.797 C 51.378 329.663,51.200 329.743,51.200 329.976 C 51.200 330.209,50.802 330.400,50.315 330.400 C 49.828 330.400,49.053 330.873,48.592 331.451 C 48.131 332.029,47.314 332.546,46.777 332.600 C 46.240 332.654,45.685 332.721,45.543 332.749 C 45.402 332.777,45.174 333.250,45.036 333.800 C 44.898 334.350,44.525 334.800,44.206 334.800 C 43.643 334.800,42.736 336.051,42.842 336.684 C 43.081 338.114,42.744 338.843,41.900 338.725 C 41.143 338.620,40.980 338.810,40.873 339.918 C 40.770 340.994,40.610 341.194,40.007 341.002 C 38.957 340.669,38.716 341.293,38.716 344.348 C 38.716 346.753,38.631 347.042,37.913 347.097 C 36.636 347.193,36.607 347.334,36.469 354.082 L 36.339 360.499 37.577 361.776 C 38.257 362.478,38.716 363.151,38.596 363.271 C 38.476 363.391,38.562 363.974,38.788 364.567 C 39.013 365.160,39.033 365.544,38.833 365.420 C 38.621 365.289,38.591 365.657,38.761 366.297 C 38.949 367.006,39.366 367.446,39.927 367.528 C 40.550 367.619,40.800 367.934,40.800 368.628 C 40.800 369.398,41.008 369.600,41.800 369.600 C 42.635 369.600,42.800 369.790,42.800 370.753 C 42.800 371.584,43.032 371.967,43.630 372.124 C 44.086 372.243,44.558 372.717,44.678 373.177 C 44.798 373.637,45.100 373.989,45.348 373.959 C 46.726 373.795,47.186 374.042,47.095 374.900 C 47.009 375.718,47.191 375.811,49.100 375.921 C 51.028 376.032,51.200 376.122,51.200 377.021 L 51.200 378.000 55.751 378.000 C 59.342 378.000,60.409 378.129,60.808 378.610 C 61.257 379.151,61.390 379.152,61.972 378.625 C 62.446 378.196,63.801 377.998,66.815 377.915 C 70.690 377.809,71.029 377.735,71.387 376.918 C 71.690 376.227,72.166 376.011,73.587 375.918 C 75.020 375.825,75.483 375.611,75.795 374.900 C 76.037 374.348,76.540 374.000,77.095 374.000 C 77.593 374.000,78.000 373.807,78.000 373.571 C 78.000 372.560,79.442 371.712,81.300 371.631 C 81.772 371.610,82.000 371.274,82.000 370.600 C 82.000 369.756,82.187 369.600,83.200 369.600 C 84.213 369.600,84.400 369.444,84.400 368.600 C 84.400 367.667,84.533 367.600,86.400 367.600 C 88.267 367.600,88.400 367.533,88.400 366.600 C 88.400 365.668,88.535 365.600,90.374 365.600 C 92.763 365.600,94.400 365.035,94.400 364.210 C 94.400 363.685,95.456 363.600,102.000 363.600 C 108.408 363.600,109.600 363.692,109.600 364.186 C 109.600 365.029,110.893 365.600,112.802 365.600 C 114.415 365.600,115.600 366.278,115.600 367.200 C 115.600 367.456,116.045 367.601,116.613 367.529 C 117.366 367.433,117.753 367.656,118.122 368.400 C 118.513 369.188,118.972 369.426,120.285 369.522 C 121.761 369.630,121.965 369.767,122.076 370.722 C 122.144 371.315,122.425 371.822,122.700 371.850 C 122.975 371.878,123.360 371.923,123.557 371.950 C 123.753 371.978,124.026 372.450,124.164 373.000 C 124.317 373.609,124.700 374.000,125.143 374.000 C 125.544 374.000,126.077 374.450,126.327 375.000 C 126.715 375.852,127.050 376.000,128.591 376.000 C 130.254 376.000,130.400 376.081,130.400 377.000 C 130.400 377.983,130.455 378.000,133.572 378.000 C 136.557 378.000,136.752 378.053,136.872 378.900 C 137.085 380.398,145.256 380.497,146.228 379.013 C 146.833 378.091,147.139 378.000,149.656 378.000 C 152.219 378.000,152.447 377.929,152.791 377.023 C 153.103 376.203,153.471 376.026,155.081 375.923 C 156.722 375.818,157.019 375.670,157.128 374.900 C 157.220 374.249,157.524 374.000,158.228 374.000 C 158.998 374.000,159.200 373.792,159.200 373.000 C 159.200 372.400,159.440 371.980,159.800 371.950 C 160.130 371.923,160.625 371.878,160.900 371.850 C 161.175 371.822,161.423 371.575,161.450 371.300 C 161.478 371.025,161.523 370.530,161.550 370.200 C 161.580 369.836,162.003 369.600,162.625 369.600 C 163.452 369.600,163.626 369.430,163.525 368.722 C 163.431 368.065,163.652 367.784,164.400 367.606 C 165.213 367.413,165.423 367.089,165.525 365.877 C 165.610 364.849,165.936 364.198,166.574 363.780 C 167.389 363.247,167.506 362.828,167.558 360.287 C 167.590 358.699,167.796 357.339,168.015 357.264 C 169.401 356.793,169.626 355.922,169.513 351.459 C 169.415 347.580,169.313 347.007,168.732 347.050 C 168.318 347.081,168.144 346.891,168.274 346.550 C 168.391 346.248,168.286 346.000,168.043 346.000 C 167.759 346.000,167.600 344.935,167.600 343.033 C 167.600 339.566,167.380 338.800,166.384 338.800 C 165.884 338.800,165.613 338.452,165.527 337.700 C 165.436 336.912,165.144 336.564,164.500 336.472 C 163.920 336.390,163.600 336.069,163.600 335.569 C 163.600 334.312,161.629 332.400,160.334 332.400 C 159.391 332.400,159.200 332.231,159.200 331.400 C 159.200 330.612,158.997 330.400,158.242 330.400 C 157.716 330.400,156.739 329.890,156.071 329.267 C 154.980 328.247,154.617 328.144,152.452 328.240 C 150.494 328.327,150.087 328.240,150.266 327.771 C 150.673 326.712,148.138 326.107,143.736 326.212 C 139.382 326.315,138.717 326.494,138.889 327.513 C 138.979 328.042,138.586 328.181,136.800 328.248 C 135.590 328.294,134.281 328.347,133.891 328.366 C 133.502 328.385,132.978 328.850,132.727 329.400 C 132.394 330.130,131.960 330.400,131.118 330.400 C 130.429 330.400,129.572 330.792,128.993 331.371 C 128.459 331.905,127.613 332.400,127.114 332.471 C 126.516 332.556,126.136 332.944,126.003 333.603 C 125.856 334.330,125.557 334.593,124.919 334.558 C 124.434 334.532,124.050 334.621,124.066 334.756 C 124.205 335.933,123.902 336.400,123.000 336.400 C 122.450 336.400,122.000 336.560,122.000 336.756 C 122.000 336.951,121.687 337.086,121.304 337.056 C 120.922 337.025,120.428 337.407,120.207 337.905 C 119.985 338.405,119.570 338.721,119.280 338.609 C 118.471 338.299,116.000 339.482,116.000 340.180 C 116.000 340.666,115.519 340.800,113.782 340.800 C 111.949 340.800,111.390 340.974,110.564 341.800 C 109.070 343.294,96.938 343.381,96.728 341.900 C 96.615 341.103,96.337 340.986,94.300 340.880 C 92.633 340.793,92.000 340.603,92.000 340.190 C 92.000 339.478,89.850 338.329,89.075 338.627 C 88.702 338.770,88.415 338.512,88.260 337.897 C 88.087 337.208,87.606 336.844,86.511 336.573 C 85.553 336.337,84.856 335.871,84.605 335.300 C 84.368 334.760,83.859 334.400,83.333 334.400 C 82.729 334.400,82.416 334.121,82.328 333.503 C 82.245 332.918,81.852 332.535,81.200 332.403 C 80.650 332.291,80.182 331.975,80.160 331.700 C 80.067 330.532,79.953 330.400,79.042 330.400 C 78.516 330.400,77.555 329.905,76.907 329.300 C 75.920 328.377,75.397 328.207,73.665 328.241 C 71.769 328.279,71.600 328.208,71.600 327.368 C 71.600 326.847,71.299 326.361,70.900 326.238 C 70.137 326.002,59.436 326.061,58.300 326.307 " stroke="none" fill="#7cb404" fill-rule="evenodd"></path><path id="path1" d="M100.180 96.366 C 99.971 96.568,99.350 96.813,98.800 96.912 L 97.800 97.091 98.851 97.146 C 99.429 97.175,100.126 96.930,100.400 96.600 C 100.944 95.944,100.789 95.779,100.180 96.366 M203.371 185.200 C 203.371 185.640,203.513 186.000,203.686 186.000 C 203.859 186.000,204.000 185.640,204.000 185.200 C 204.000 184.760,203.859 184.400,203.686 184.400 C 203.513 184.400,203.371 184.760,203.371 185.200 M71.500 197.082 C 71.995 197.178,72.805 197.178,73.300 197.082 C 73.795 196.987,73.390 196.909,72.400 196.909 C 71.410 196.909,71.005 196.987,71.500 197.082 M77.900 197.082 C 78.395 197.178,79.205 197.178,79.700 197.082 C 80.195 196.987,79.790 196.909,78.800 196.909 C 77.810 196.909,77.405 196.987,77.900 197.082 M9.301 204.200 C 9.305 205.080,9.387 205.393,9.483 204.895 C 9.579 204.398,9.575 203.678,9.475 203.295 C 9.375 202.913,9.296 203.320,9.301 204.200 M9.200 214.310 C 9.200 214.993,9.377 215.662,9.594 215.796 C 9.840 215.948,9.894 215.545,9.737 214.720 C 9.400 212.951,9.200 212.799,9.200 214.310 M28.300 278.289 C 29.015 278.378,30.185 278.378,30.900 278.289 C 31.615 278.201,31.030 278.128,29.600 278.128 C 28.170 278.128,27.585 278.201,28.300 278.289 M108.100 278.287 C 108.705 278.378,109.695 278.378,110.300 278.287 C 110.905 278.195,110.410 278.120,109.200 278.120 C 107.990 278.120,107.495 278.195,108.100 278.287 M143.305 326.287 C 143.914 326.379,144.814 326.377,145.305 326.282 C 145.797 326.187,145.300 326.111,144.200 326.114 C 143.100 326.117,142.697 326.195,143.305 326.287 " stroke="none" fill="none" fill-rule="evenodd"></path><path id="path2" d="M100.180 96.366 C 99.971 96.568,99.350 96.813,98.800 96.912 L 97.800 97.091 98.851 97.146 C 99.429 97.175,100.126 96.930,100.400 96.600 C 100.944 95.944,100.789 95.779,100.180 96.366 M203.371 185.200 C 203.371 185.640,203.513 186.000,203.686 186.000 C 203.859 186.000,204.000 185.640,204.000 185.200 C 204.000 184.760,203.859 184.400,203.686 184.400 C 203.513 184.400,203.371 184.760,203.371 185.200 M71.500 197.082 C 71.995 197.178,72.805 197.178,73.300 197.082 C 73.795 196.987,73.390 196.909,72.400 196.909 C 71.410 196.909,71.005 196.987,71.500 197.082 M77.900 197.082 C 78.395 197.178,79.205 197.178,79.700 197.082 C 80.195 196.987,79.790 196.909,78.800 196.909 C 77.810 196.909,77.405 196.987,77.900 197.082 M9.301 204.200 C 9.305 205.080,9.387 205.393,9.483 204.895 C 9.579 204.398,9.575 203.678,9.475 203.295 C 9.375 202.913,9.296 203.320,9.301 204.200 M9.200 214.310 C 9.200 214.993,9.377 215.662,9.594 215.796 C 9.840 215.948,9.894 215.545,9.737 214.720 C 9.400 212.951,9.200 212.799,9.200 214.310 M28.300 278.289 C 29.015 278.378,30.185 278.378,30.900 278.289 C 31.615 278.201,31.030 278.128,29.600 278.128 C 28.170 278.128,27.585 278.201,28.300 278.289 M108.100 278.287 C 108.705 278.378,109.695 278.378,110.300 278.287 C 110.905 278.195,110.410 278.120,109.200 278.120 C 107.990 278.120,107.495 278.195,108.100 278.287 M143.305 326.287 C 143.914 326.379,144.814 326.377,145.305 326.282 C 145.797 326.187,145.300 326.111,144.200 326.114 C 143.100 326.117,142.697 326.195,143.305 326.287 " stroke="none" fill="none" fill-rule="evenodd"></path><path id="path3" d="M100.180 96.366 C 99.971 96.568,99.350 96.813,98.800 96.912 L 97.800 97.091 98.851 97.146 C 99.429 97.175,100.126 96.930,100.400 96.600 C 100.944 95.944,100.789 95.779,100.180 96.366 M203.371 185.200 C 203.371 185.640,203.513 186.000,203.686 186.000 C 203.859 186.000,204.000 185.640,204.000 185.200 C 204.000 184.760,203.859 184.400,203.686 184.400 C 203.513 184.400,203.371 184.760,203.371 185.200 M71.500 197.082 C 71.995 197.178,72.805 197.178,73.300 197.082 C 73.795 196.987,73.390 196.909,72.400 196.909 C 71.410 196.909,71.005 196.987,71.500 197.082 M77.900 197.082 C 78.395 197.178,79.205 197.178,79.700 197.082 C 80.195 196.987,79.790 196.909,78.800 196.909 C 77.810 196.909,77.405 196.987,77.900 197.082 M9.301 204.200 C 9.305 205.080,9.387 205.393,9.483 204.895 C 9.579 204.398,9.575 203.678,9.475 203.295 C 9.375 202.913,9.296 203.320,9.301 204.200 M9.200 214.310 C 9.200 214.993,9.377 215.662,9.594 215.796 C 9.840 215.948,9.894 215.545,9.737 214.720 C 9.400 212.951,9.200 212.799,9.200 214.310 M28.300 278.289 C 29.015 278.378,30.185 278.378,30.900 278.289 C 31.615 278.201,31.030 278.128,29.600 278.128 C 28.170 278.128,27.585 278.201,28.300 278.289 M108.100 278.287 C 108.705 278.378,109.695 278.378,110.300 278.287 C 110.905 278.195,110.410 278.120,109.200 278.120 C 107.990 278.120,107.495 278.195,108.100 278.287 M143.305 326.287 C 143.914 326.379,144.814 326.377,145.305 326.282 C 145.797 326.187,145.300 326.111,144.200 326.114 C 143.100 326.117,142.697 326.195,143.305 326.287 " stroke="none" fill="none" fill-rule="evenodd"></path><path id="path4" d="M100.180 96.366 C 99.971 96.568,99.350 96.813,98.800 96.912 L 97.800 97.091 98.851 97.146 C 99.429 97.175,100.126 96.930,100.400 96.600 C 100.944 95.944,100.789 95.779,100.180 96.366 M203.371 185.200 C 203.371 185.640,203.513 186.000,203.686 186.000 C 203.859 186.000,204.000 185.640,204.000 185.200 C 204.000 184.760,203.859 184.400,203.686 184.400 C 203.513 184.400,203.371 184.760,203.371 185.200 M71.500 197.082 C 71.995 197.178,72.805 197.178,73.300 197.082 C 73.795 196.987,73.390 196.909,72.400 196.909 C 71.410 196.909,71.005 196.987,71.500 197.082 M77.900 197.082 C 78.395 197.178,79.205 197.178,79.700 197.082 C 80.195 196.987,79.790 196.909,78.800 196.909 C 77.810 196.909,77.405 196.987,77.900 197.082 M9.301 204.200 C 9.305 205.080,9.387 205.393,9.483 204.895 C 9.579 204.398,9.575 203.678,9.475 203.295 C 9.375 202.913,9.296 203.320,9.301 204.200 M9.200 214.310 C 9.200 214.993,9.377 215.662,9.594 215.796 C 9.840 215.948,9.894 215.545,9.737 214.720 C 9.400 212.951,9.200 212.799,9.200 214.310 M28.300 278.289 C 29.015 278.378,30.185 278.378,30.900 278.289 C 31.615 278.201,31.030 278.128,29.600 278.128 C 28.170 278.128,27.585 278.201,28.300 278.289 M108.100 278.287 C 108.705 278.378,109.695 278.378,110.300 278.287 C 110.905 278.195,110.410 278.120,109.200 278.120 C 107.990 278.120,107.495 278.195,108.100 278.287 M143.305 326.287 C 143.914 326.379,144.814 326.377,145.305 326.282 C 145.797 326.187,145.300 326.111,144.200 326.114 C 143.100 326.117,142.697 326.195,143.305 326.287 " stroke="none" fill="none" fill-rule="evenodd"></path></g></svg>